<svg xmlns="http://www.w3.org/2000/svg" xmlns:xlink="http://www.w3.org/1999/xlink" width="200" zoomAndPan="magnify" viewBox="0 0 150 149.999998" height="200" preserveAspectRatio="xMidYMid meet" version="1.0"><defs><g/><clipPath id="beae581b92"><path d="M 26 113 L 150 113 L 150 150 L 26 150 Z M 26 113 " clip-rule="nonzero"/></clipPath><clipPath id="ebeb0fd157"><path d="M 26.527344 148.820312 L 186.15625 113.460938 L 192.804688 143.484375 L 33.175781 178.84375 Z M 26.527344 148.820312 " clip-rule="nonzero"/></clipPath><clipPath id="1f12873097"><path d="M 12.367188 151.957031 L 216.664062 106.703125 L 225.097656 144.78125 L 20.800781 190.035156 Z M 12.367188 151.957031 " clip-rule="nonzero"/></clipPath><clipPath id="6e8c5d6a7e"><path d="M 0 0 L 128 0 L 128 30 L 0 30 Z M 0 0 " clip-rule="nonzero"/></clipPath><clipPath id="cda5b3498c"><path d="M -17.570312 4.0625 L 122.234375 -27.167969 L 127.957031 -1.550781 L -11.847656 29.679688 Z M -17.570312 4.0625 " clip-rule="nonzero"/></clipPath><clipPath id="03a03c9a76"><path d="M -49.835938 3.699219 L 128.03125 -36.035156 L 135.390625 -3.097656 L -42.476562 36.636719 Z M -49.835938 3.699219 " clip-rule="nonzero"/></clipPath><clipPath id="f953b12e5b"><path d="M 26 75 L 135 75 L 135 117 L 26 117 Z M 26 75 " clip-rule="nonzero"/></clipPath><clipPath id="4e1f61ebef"><path d="M 23.953125 98.390625 L 131.535156 74.28125 L 135.960938 94.042969 L 28.378906 118.148438 Z M 23.953125 98.390625 " clip-rule="nonzero"/></clipPath><clipPath id="d1327b6e84"><path d="M 23.953125 98.390625 L 131.535156 74.28125 L 135.960938 94.042969 L 28.378906 118.148438 Z M 23.953125 98.390625 " clip-rule="nonzero"/></clipPath><clipPath id="86fe6b2bcb"><path d="M 5 22 L 139 22 L 139 78 L 5 78 Z M 5 22 " clip-rule="nonzero"/></clipPath><clipPath id="e71750d48a"><path d="M 5.164062 50.738281 L 132.535156 22.335938 L 141.027344 60.398438 L 13.65625 88.804688 Z M 5.164062 50.738281 " clip-rule="nonzero"/></clipPath><clipPath id="2b7af982ad"><path d="M 5.164062 50.738281 L 132.535156 22.335938 L 141.027344 60.398438 L 13.65625 88.804688 Z M 5.164062 50.738281 " clip-rule="nonzero"/></clipPath></defs><rect x="-15" width="180" fill="#ffffff" y="-15" height="179.999997" fill-opacity="1"/><rect x="-15" width="180" fill="#ff4242" y="-15" height="179.999997" fill-opacity="1"/><g clip-path="url(#beae581b92)"><g clip-path="url(#ebeb0fd157)"><g clip-path="url(#1f12873097)"><path fill="#000000" d="M 209.378906 111.792969 C 208.125 111.640625 206.542969 111.832031 204.9375 112.046875 C 205.023438 111.945312 205.039062 111.808594 204.992188 111.65625 C 204.101562 111.824219 203.796875 112.207031 202.828125 112.34375 C 203.082031 112.089844 202.808594 111.988281 202.351562 112.167969 C 202.570312 111.875 203.460938 111.824219 203.496094 112.09375 C 203.664062 112.03125 203.59375 111.882812 203.453125 111.914062 C 205.730469 111.535156 207.964844 110.648438 209.980469 110.605469 C 208.675781 110.078125 205.003906 110.90625 203.207031 110.828125 C 203.265625 110.59375 204.039062 110.546875 203.9375 110.851562 C 204.097656 110.71875 204.429688 110.648438 204.425781 110.453125 C 205.992188 110.417969 207.71875 110.152344 209.199219 109.742188 C 211.050781 110.011719 213.410156 109.761719 214.640625 110.683594 C 214.863281 111.402344 214.753906 111.839844 215.035156 112.398438 C 214.765625 113.261719 214.441406 114.109375 213.695312 114.796875 C 214.464844 115.410156 214.941406 115.890625 215.140625 116.65625 C 214.992188 116.84375 214.195312 117.214844 214.828125 117.203125 C 214.570312 117.378906 214.296875 117.554688 214.085938 117.753906 C 214.207031 117.976562 214.917969 117.882812 214.621094 118.199219 C 214.160156 118.382812 214.0625 118.1875 213.636719 118.332031 C 213.859375 118.839844 214.921875 118.835938 215.347656 119.460938 C 215.871094 120.230469 215.46875 121.378906 215.734375 122.414062 C 214.386719 122.722656 215.160156 123.949219 213.246094 124.222656 C 214.796875 124.488281 217.003906 124.621094 218.777344 124.285156 C 219.175781 124.582031 219.847656 125.453125 219.148438 125.910156 C 219.347656 126.039062 219.578125 126.136719 219.804688 126.238281 C 219.566406 126.527344 218.398438 126.5625 218.941406 126.910156 C 217.613281 127.441406 215.757812 127.511719 214.953125 128.492188 C 215.019531 128.71875 215.5 128.519531 215.703125 128.605469 C 215.796875 128.824219 215.566406 129.191406 215.730469 129.359375 C 216.546875 129.375 216.199219 129.613281 216.917969 129.464844 C 216.804688 129.753906 216.582031 130.003906 216.054688 130.140625 C 216.53125 130.277344 217.304688 130.105469 217.578125 130.457031 C 216.101562 131.238281 215.347656 131.09375 213.621094 131.554688 C 216.222656 131.460938 218.597656 131.597656 220.8125 131.902344 C 220.929688 132.292969 221.042969 132.683594 220.703125 132.691406 C 221.027344 132.914062 221.1875 132.660156 221.371094 132.441406 C 221.695312 133.1875 221.878906 133.648438 222.730469 133.9375 C 222.601562 134.640625 221.582031 134.601562 220.789062 134.953125 C 221.007812 135.359375 221.28125 135.707031 221.960938 135.636719 C 221.710938 136.554688 219.335938 136.960938 218.601562 137.449219 C 219.039062 137.921875 219.804688 137.28125 220.53125 137.007812 C 220.425781 137.417969 220.898438 137.222656 220.933594 137.488281 C 218.496094 138.121094 218.4375 138.914062 215.816406 139.230469 C 216.269531 141.601562 214.730469 143.238281 214.140625 145.226562 C 212.894531 145.269531 212.453125 145.785156 211.921875 146.304688 C 211.914062 146.570312 212.65625 146.0625 212.652344 146.328125 C 211.644531 146.882812 210.113281 147.167969 208.597656 147.636719 C 207.179688 148.074219 205.964844 148.347656 204.949219 148.191406 C 198.039062 150.664062 192.304688 151.1875 184.914062 153.257812 C 184.726562 152.996094 185.34375 153.03125 185.246094 152.800781 C 182.945312 153.300781 179.0625 154.871094 176.714844 154.851562 C 176.289062 155.035156 176.453125 154.601562 176.21875 154.585938 C 174.484375 155.027344 173.039062 155.957031 171.804688 155.597656 C 169.289062 156.007812 166.699219 157.363281 164.769531 157.210938 C 157.535156 158.941406 151.757812 160.566406 145.511719 161.246094 C 142.003906 161.847656 139.222656 162.714844 135.679688 163.308594 C 136.074219 162.765625 137.230469 162.503906 138.175781 162.167969 C 136.867188 162.300781 134.777344 162.730469 133.050781 163.246094 C 127.28125 164.96875 121.140625 166.183594 115.101562 167.265625 C 114.777344 167.121094 115.113281 167.15625 115.175781 166.964844 C 113.933594 166.933594 112.789062 167.613281 111.769531 167.933594 C 111.472656 167.824219 111.703125 167.710938 111.664062 167.484375 C 110.457031 167.628906 110.894531 167.941406 110.230469 168.191406 C 109.605469 168.417969 110.367188 167.914062 109.894531 167.984375 C 109.589844 168.007812 109.660156 168.171875 109.679688 168.316406 C 108.070312 168.542969 106.785156 168.742188 104.96875 169.304688 C 104.410156 169.476562 105.023438 169.050781 104.613281 169.003906 C 102.28125 169.488281 99.101562 170.746094 96.515625 171.050781 C 95.289062 171.199219 94.558594 171.5 93.203125 171.8125 C 92.046875 172.078125 90.808594 171.855469 89.472656 172 C 88.378906 172.125 86.867188 172.847656 85.199219 172.980469 C 85.199219 172.84375 85.601562 172.855469 85.570312 172.707031 C 80.90625 173.910156 75.140625 175.210938 70.796875 176.664062 C 65.351562 177.507812 59.335938 179.757812 54.464844 180.785156 C 54.554688 180.625 54.769531 180.511719 55.113281 180.449219 C 50.285156 181.136719 42.972656 182.691406 36.964844 184.230469 C 36.402344 184.40625 36.476562 184.820312 35.667969 184.90625 C 35.417969 185.507812 34.3125 185.789062 33.625 186.136719 C 33.507812 186.195312 33.148438 186.527344 33 186.566406 C 30.8125 187.148438 31.101562 185.328125 29.679688 184.757812 C 29.085938 185.167969 28.433594 185.421875 27.75 185.199219 C 27.667969 184.617188 28.6875 184.449219 28.921875 183.980469 C 28.714844 183.894531 28.082031 183.863281 28.09375 184.171875 C 27.742188 184.058594 27.683594 183.769531 27.949219 183.539062 C 27.449219 183.601562 27.6875 183.933594 27.1875 184 C 27.082031 183.824219 27.226562 183.738281 27.242188 183.605469 C 26.789062 183.652344 26.851562 183.871094 26.550781 183.761719 C 26.386719 183.207031 26.347656 182.695312 26.8125 182.371094 C 23.90625 182.410156 21.332031 181.441406 18.753906 180.796875 C 18.691406 180.222656 19.359375 179.917969 19.292969 179.34375 C 20.910156 178.636719 21.964844 178.230469 23.992188 177.695312 C 24.28125 177.441406 23.625 177.246094 23.96875 176.941406 C 24.566406 176.894531 25.371094 176.691406 25.679688 176.167969 C 25.140625 176.148438 24.914062 176.308594 24.257812 176.300781 C 24.300781 176.070312 24.660156 175.953125 24.707031 175.722656 C 23.714844 175.398438 24.933594 174.28125 24.269531 173.824219 C 24.457031 173.5625 25.082031 173.796875 25.53125 173.632812 C 24.746094 173.515625 26.238281 173.304688 26.414062 173.046875 C 26.316406 172.875 25.308594 173.507812 25.546875 173.058594 C 24.195312 173.507812 24.558594 173.214844 23.480469 173.53125 C 23.339844 172.117188 25.347656 171.117188 27.449219 169.957031 C 27.074219 169.753906 26.4375 169.347656 26.628906 168.910156 C 26.402344 168.777344 25.890625 169.238281 25.566406 169.34375 C 25.507812 169.074219 25.855469 168.953125 25.855469 168.707031 C 25.480469 168.5625 25.628906 168.902344 25.1875 168.953125 C 25.476562 168.332031 26.261719 168.335938 26.835938 167.910156 C 26.132812 167.707031 25.546875 168.179688 24.765625 168.386719 C 24.792969 168.230469 25.183594 168.207031 24.960938 167.960938 C 24.566406 168.035156 24.761719 168.328125 24.175781 168.332031 C 24.042969 168.0625 24.550781 168.03125 24.328125 167.726562 C 23.636719 167.988281 22.789062 168.269531 22.140625 168.320312 C 22.0625 167.992188 22.542969 167.867188 22.707031 167.621094 C 22.214844 167.578125 21.945312 167.890625 21.347656 168.027344 C 21.203125 167.644531 21.105469 167.226562 22.105469 166.902344 C 22.015625 166.703125 22.050781 166.550781 22.140625 166.417969 C 21.503906 166.292969 21.285156 166.503906 20.03125 166.710938 C 19.71875 166.355469 20.445312 165.875 20.214844 165.625 C 19.6875 165.046875 18.945312 165.34375 17.878906 165.589844 C 18.242188 165.125 17.984375 164.9375 18.363281 164.527344 C 17.613281 164.410156 18.046875 163.960938 17.953125 163.382812 C 18.199219 163.316406 18.269531 163.429688 18.527344 163.347656 C 18.625 162.308594 21.128906 162.164062 21.210938 161.117188 C 20.53125 161.078125 20.734375 160.121094 20.089844 160.042969 C 20.601562 158.6875 19.433594 156.710938 21.945312 156.097656 C 21.710938 155.742188 21.21875 155.65625 20.441406 155.871094 C 20.476562 155.429688 20.042969 155.464844 19.511719 155.609375 C 19.628906 155.097656 19.707031 155.046875 19.070312 154.949219 C 19.519531 154.015625 19.179688 153.246094 19.550781 151.984375 C 25.332031 151.035156 33.246094 149.265625 38.339844 148.4375 C 38.472656 148.40625 38.417969 148.304688 38.433594 148.226562 C 39.640625 148.484375 41.269531 147.816406 42.277344 147.25 C 42.21875 147.339844 42.167969 147.429688 42.199219 147.554688 C 42.816406 147.480469 42.941406 147.222656 43.558594 147.148438 C 44.789062 147.074219 49.066406 145.53125 51.890625 144.859375 C 54.984375 144.117188 58.128906 142.976562 59.566406 142.242188 C 60.230469 142.90625 61.746094 142.257812 63.390625 141.839844 C 63.804688 141.710938 63.703125 142.117188 64.027344 142.074219 C 64.785156 141.484375 67.382812 141.558594 68.242188 140.824219 C 68.269531 140.570312 68.109375 140.511719 67.765625 140.644531 C 68.671875 140.109375 69.980469 140.1875 71.035156 139.707031 C 70.921875 139.636719 70.695312 139.6875 70.695312 139.496094 C 72.609375 139.179688 74.679688 139.035156 76.007812 139.230469 C 76.636719 138.894531 77.113281 139.085938 77.703125 139.03125 C 79.394531 138.882812 81.78125 137.917969 83.730469 137.460938 C 89.738281 136.050781 95.765625 135.234375 101.289062 133.625 C 101.402344 133.695312 101.628906 133.644531 101.628906 133.832031 C 105.988281 132.792969 109.398438 131.695312 113.703125 130.78125 C 113.691406 130.53125 113.363281 130.613281 113.085938 130.632812 C 114.164062 130.292969 115.273438 130.402344 116.226562 130.390625 C 117.042969 129.542969 117.945312 130.101562 119.28125 129.785156 C 119.402344 129.96875 119.046875 129.972656 119.066406 130.121094 C 123.628906 129.4375 127.335938 127.136719 132.105469 126.84375 C 132.25 126.648438 132.503906 126.496094 132.875 126.386719 C 132.871094 126.992188 131.554688 127.109375 130.949219 127.492188 C 133.070312 127.035156 135.558594 126.171875 138.183594 126.117188 C 138.867188 125.074219 141.484375 125.035156 143.4375 124.34375 C 143.507812 124.480469 143.34375 124.527344 143.359375 124.644531 C 144.011719 124.492188 144.445312 124.566406 145.058594 124.445312 C 145 124.136719 144.484375 124.296875 144.03125 124.398438 C 145.035156 123.703125 146.75 124.132812 147.078125 123.125 C 147.851562 123.066406 148.351562 122.957031 148.691406 122.566406 C 148.765625 122.703125 148.597656 122.75 148.617188 122.871094 C 152.550781 122.523438 156.890625 121.5 161.84375 120.410156 C 161.699219 120.070312 160.855469 120.46875 160.519531 120.332031 C 165.109375 118.839844 170.699219 119.007812 175.277344 116.949219 C 174.527344 116.816406 172.988281 117.214844 172.433594 117.21875 C 172.136719 117.230469 171.554688 117.539062 171.449219 117.351562 C 173.035156 117.035156 173.515625 116.648438 174.859375 116.378906 C 175.046875 116.230469 175.078125 116.019531 175.484375 115.949219 C 175.226562 116.207031 175.613281 116.191406 175.609375 116.492188 C 176.226562 116.445312 176.351562 116.214844 176.671875 116.058594 C 177.519531 116.289062 178.183594 115.976562 179.015625 115.519531 C 184.007812 115.335938 189.957031 113.207031 195.414062 112.328125 C 194.214844 113.066406 192.179688 113.042969 191.125 113.886719 C 191.417969 114.066406 192.46875 113.457031 192.332031 114.085938 C 192.9375 114.003906 192.828125 113.660156 193.375 113.5625 C 193.578125 113.640625 193.628906 113.855469 193.480469 114.015625 C 194.550781 113.542969 196.644531 113.125 198.113281 113.332031 C 197.699219 113.425781 197.285156 113.519531 196.871094 113.617188 C 199.789062 113.199219 204.339844 112.738281 207.65625 111.90625 C 208.0625 112.300781 208.246094 111.789062 209.378906 111.792969 Z M 109.691406 132.269531 C 110.363281 132.070312 111.109375 132.015625 110.601562 132.441406 C 111.167969 132.347656 111.261719 132.082031 111.640625 131.917969 C 111.054688 132.046875 111.265625 131.789062 111.417969 131.589844 C 110.960938 132.039062 109.640625 131.65625 109.691406 132.269531 Z M 176.703125 116.8125 C 176.523438 116.828125 176.386719 116.734375 176.445312 116.960938 C 177.148438 116.789062 177.804688 116.558594 178.238281 116.550781 C 178.113281 116.175781 176.972656 116.5 176.703125 116.8125 Z M 139.089844 127.527344 C 139.03125 127.886719 139.902344 127.542969 139.777344 127.367188 C 139.433594 127.4375 139.3125 127.296875 139.089844 127.527344 Z M 140.097656 127.484375 C 140.546875 127.320312 141.402344 127.308594 141.59375 127.046875 C 140.847656 127.167969 140.484375 126.984375 140.097656 127.484375 Z M 120.5 136.355469 C 120.953125 136.539062 121.660156 136.027344 121.800781 136.339844 C 122.214844 136.253906 122.441406 135.914062 122.746094 136.03125 C 122.71875 135.910156 122.691406 135.789062 122.664062 135.667969 C 122 135.917969 121.042969 136.058594 120.5 136.355469 Z M 186.167969 126.433594 C 186.5625 126.25 187.15625 126.136719 187.1875 125.820312 C 186.648438 125.953125 185.960938 126.027344 186.167969 126.433594 Z M 189.347656 126.371094 C 191.21875 125.769531 188.460938 126.292969 188.246094 126.625 C 188.699219 126.503906 189.066406 126.460938 189.347656 126.371094 Z M 65.386719 160.023438 C 65.507812 160.074219 66.25 159.925781 66.167969 159.65625 C 65.804688 159.738281 65.347656 159.789062 65.386719 160.023438 Z M 107.6875 155.839844 C 107.792969 155.464844 106.789062 155.671875 106.683594 155.882812 C 107.203125 155.671875 107.105469 156.117188 107.6875 155.839844 Z M 109.894531 155.335938 C 111.160156 155.21875 112.148438 154.832031 113.640625 154.570312 C 112.855469 154.609375 110.582031 154.820312 109.894531 155.335938 Z M 117.089844 153.78125 C 116.871094 153.824219 116.613281 153.90625 116.636719 153.695312 C 115.839844 154.074219 114.523438 154.148438 113.875 154.328125 C 115.460938 154.289062 116.199219 154.195312 117.089844 153.78125 Z M 102.6875 157.464844 C 101.78125 157.816406 100.371094 157.730469 100.089844 158.15625 C 101.761719 158.039062 105.367188 157.339844 107.125 156.542969 C 105.644531 156.773438 104.703125 156.757812 103.359375 157.214844 C 104.503906 157.304688 102.375 157.3125 102.375 157.34375 C 102.53125 157.332031 102.609375 157.398438 102.6875 157.464844 Z M 118.136719 153.921875 C 118.460938 153.847656 118.78125 153.773438 119.101562 153.699219 C 119.078125 153.324219 118.132812 153.765625 118.136719 153.921875 Z M 107.539062 156.445312 C 107.453125 156.472656 107.378906 156.5 107.421875 156.566406 C 108.035156 156.476562 109.890625 155.941406 108.363281 156.257812 C 108.035156 156.125 107.9375 156.441406 107.65625 156.324219 C 107.632812 156.269531 107.609375 156.222656 107.496094 156.265625 C 107.511719 156.328125 107.523438 156.386719 107.539062 156.445312 Z M 99.800781 158.792969 C 99.703125 159.003906 99.335938 159.117188 99.195312 159.3125 C 102.230469 158.785156 107.335938 157.527344 110.777344 156.652344 C 107.605469 156.847656 103.5 158.296875 99.800781 158.792969 Z M 199.828125 140.421875 C 201.375 140.679688 203.480469 140.4375 205.234375 139.945312 C 203.40625 140.265625 201.21875 139.816406 199.828125 140.421875 Z M 193.964844 142.71875 C 194.472656 142.890625 195.632812 142.574219 196.035156 142.246094 C 196.042969 142.460938 196.144531 142.574219 196.394531 142.542969 C 196.589844 142.304688 196.25 142.390625 196.449219 142.148438 C 195.605469 141.960938 194.835938 142.324219 193.964844 142.71875 Z M 191.503906 143.378906 C 192.050781 143.222656 192.304688 143.363281 192.90625 143.152344 C 192.753906 142.699219 191.472656 143.1875 191.503906 143.378906 Z M 203.691406 141.441406 C 204.160156 141.417969 204.5625 141.308594 205.367188 141.152344 C 205.257812 140.738281 204.136719 141.261719 203.691406 141.441406 Z M 81.542969 172.871094 C 81.234375 173.101562 80.164062 173.003906 79.769531 173.371094 C 80.136719 173.578125 81.410156 173.242188 81.542969 172.871094 Z M 141.75 160.019531 C 141.257812 160.199219 140.929688 159.972656 140.644531 160.273438 C 141.25 160.566406 142.371094 160.183594 143.328125 159.941406 C 144.867188 159.550781 146.28125 158.996094 147.859375 158.808594 C 146.277344 158.636719 142.878906 159.679688 141.75 160.019531 Z M 150.042969 158.210938 C 150.675781 158.1875 152.078125 157.769531 152.902344 157.363281 C 151.910156 157.699219 150.066406 157.636719 150.042969 158.210938 Z M 158.417969 156.101562 C 158.476562 156.507812 157.058594 156.371094 157.121094 156.777344 C 157.84375 156.769531 158.308594 156.535156 158.894531 156.277344 C 159.015625 156.5 159.074219 156.558594 159.433594 156.722656 C 162.128906 155.292969 165.199219 155.941406 167.785156 154.523438 C 164.652344 154.804688 161.570312 155.949219 158.417969 156.101562 Z M 133.121094 162.28125 C 132.417969 162.4375 131.4375 162.25 131.230469 162.90625 C 133.75 162.5 136.207031 161.882812 138.597656 160.835938 C 136.800781 161.226562 134.855469 161.890625 133.121094 162.28125 Z M 133.121094 162.28125 " fill-opacity="1" fill-rule="evenodd"/></g></g></g><g clip-path="url(#6e8c5d6a7e)"><g clip-path="url(#cda5b3498c)"><g clip-path="url(#03a03c9a76)"><path fill="#000000" d="M 121.976562 -31.644531 C 120.878906 -31.773438 119.5 -31.605469 118.101562 -31.414062 C 118.175781 -31.503906 118.1875 -31.621094 118.148438 -31.757812 C 117.371094 -31.609375 117.105469 -31.273438 116.257812 -31.152344 C 116.480469 -31.378906 116.242188 -31.464844 115.84375 -31.308594 C 116.035156 -31.5625 116.8125 -31.605469 116.84375 -31.371094 C 116.988281 -31.429688 116.929688 -31.558594 116.804688 -31.53125 C 118.792969 -31.863281 120.742188 -32.640625 122.496094 -32.679688 C 121.355469 -33.140625 118.160156 -32.410156 116.585938 -32.476562 C 116.640625 -32.679688 117.3125 -32.722656 117.226562 -32.457031 C 117.367188 -32.574219 117.65625 -32.636719 117.652344 -32.804688 C 119.015625 -32.839844 120.523438 -33.074219 121.8125 -33.433594 C 123.429688 -33.199219 125.488281 -33.425781 126.5625 -32.621094 C 126.761719 -31.992188 126.664062 -31.613281 126.910156 -31.125 C 126.675781 -30.371094 126.394531 -29.632812 125.746094 -29.03125 C 126.414062 -28.5 126.832031 -28.078125 127.007812 -27.410156 C 126.878906 -27.246094 126.1875 -26.921875 126.738281 -26.933594 C 126.511719 -26.777344 126.277344 -26.625 126.089844 -26.453125 C 126.195312 -26.257812 126.816406 -26.339844 126.558594 -26.0625 C 126.15625 -25.902344 126.070312 -26.074219 125.699219 -25.949219 C 125.894531 -25.503906 126.824219 -25.507812 127.195312 -24.964844 C 127.652344 -24.292969 127.300781 -23.289062 127.535156 -22.386719 C 126.359375 -22.117188 127.039062 -21.050781 125.367188 -20.808594 C 126.71875 -20.578125 128.644531 -20.464844 130.195312 -20.761719 C 130.542969 -20.503906 131.128906 -19.746094 130.519531 -19.34375 C 130.695312 -19.230469 130.894531 -19.148438 131.09375 -19.058594 C 130.886719 -18.808594 129.867188 -18.773438 130.34375 -18.472656 C 129.183594 -18.007812 127.5625 -17.941406 126.863281 -17.085938 C 126.921875 -16.886719 127.339844 -17.0625 127.519531 -16.988281 C 127.601562 -16.796875 127.398438 -16.476562 127.542969 -16.332031 C 128.257812 -16.316406 127.953125 -16.109375 128.578125 -16.238281 C 128.480469 -15.984375 128.289062 -15.769531 127.828125 -15.648438 C 128.242188 -15.527344 128.917969 -15.679688 129.15625 -15.375 C 127.867188 -14.691406 127.210938 -14.816406 125.707031 -14.410156 C 127.976562 -14.5 130.046875 -14.382812 131.980469 -14.117188 C 132.082031 -13.78125 132.183594 -13.4375 131.886719 -13.433594 C 132.171875 -13.238281 132.308594 -13.460938 132.46875 -13.648438 C 132.753906 -13 132.914062 -12.597656 133.660156 -12.347656 C 133.546875 -11.734375 132.65625 -11.765625 131.964844 -11.457031 C 132.15625 -11.105469 132.394531 -10.800781 132.988281 -10.863281 C 132.769531 -10.0625 130.699219 -9.703125 130.0625 -9.277344 C 130.441406 -8.867188 131.109375 -9.425781 131.746094 -9.664062 C 131.652344 -9.308594 132.0625 -9.476562 132.09375 -9.246094 C 129.96875 -8.6875 129.921875 -8 127.632812 -7.71875 C 128.03125 -5.648438 126.691406 -4.222656 126.183594 -2.488281 C 125.09375 -2.445312 124.710938 -1.992188 124.246094 -1.539062 C 124.242188 -1.308594 124.886719 -1.753906 124.882812 -1.523438 C 124.003906 -1.035156 122.671875 -0.785156 121.347656 -0.375 C 120.113281 0.0117188 119.050781 0.25 118.167969 0.113281 C 112.140625 2.28125 107.140625 2.75 100.699219 4.566406 C 100.535156 4.339844 101.070312 4.367188 100.984375 4.167969 C 98.976562 4.609375 95.59375 5.984375 93.546875 5.972656 C 93.175781 6.132812 93.320312 5.753906 93.113281 5.738281 C 91.601562 6.125 90.34375 6.941406 89.265625 6.628906 C 87.070312 6.992188 84.8125 8.175781 83.128906 8.046875 C 76.820312 9.570312 71.785156 10.996094 66.335938 11.597656 C 63.277344 12.125 60.851562 12.890625 57.761719 13.414062 C 58.105469 12.941406 59.113281 12.710938 59.9375 12.410156 C 58.792969 12.53125 56.972656 12.910156 55.46875 13.363281 C 50.4375 14.871094 45.082031 15.941406 39.816406 16.898438 C 39.535156 16.769531 39.824219 16.804688 39.878906 16.632812 C 38.796875 16.609375 37.800781 17.203125 36.910156 17.484375 C 36.648438 17.386719 36.847656 17.292969 36.820312 17.089844 C 35.765625 17.21875 36.144531 17.492188 35.566406 17.710938 C 35.023438 17.910156 35.6875 17.46875 35.273438 17.53125 C 35.007812 17.554688 35.070312 17.695312 35.085938 17.824219 C 33.683594 18.023438 32.5625 18.199219 30.980469 18.691406 C 30.492188 18.84375 31.027344 18.472656 30.667969 18.429688 C 28.632812 18.855469 25.863281 19.957031 23.605469 20.226562 C 22.535156 20.359375 21.898438 20.621094 20.71875 20.898438 C 19.710938 21.132812 18.628906 20.9375 17.464844 21.066406 C 16.511719 21.175781 15.191406 21.8125 13.738281 21.929688 C 13.738281 21.808594 14.089844 21.820312 14.058594 21.6875 C 9.992188 22.746094 4.96875 23.890625 1.179688 25.164062 C -3.570312 25.910156 -8.816406 27.882812 -13.0625 28.789062 C -12.984375 28.644531 -12.796875 28.546875 -12.496094 28.492188 C -16.710938 29.101562 -23.082031 30.464844 -28.324219 31.820312 C -28.816406 31.976562 -28.746094 32.335938 -29.453125 32.410156 C -29.671875 32.933594 -30.632812 33.183594 -31.234375 33.488281 C -31.335938 33.539062 -31.652344 33.828125 -31.78125 33.863281 C -33.6875 34.375 -33.4375 32.785156 -34.679688 32.289062 C -35.195312 32.648438 -35.761719 32.871094 -36.363281 32.679688 C -36.433594 32.171875 -35.542969 32.023438 -35.339844 31.613281 C -35.519531 31.539062 -36.074219 31.511719 -36.0625 31.78125 C -36.371094 31.683594 -36.421875 31.429688 -36.1875 31.230469 C -36.625 31.285156 -36.417969 31.578125 -36.855469 31.632812 C -36.945312 31.480469 -36.820312 31.402344 -36.808594 31.289062 C -37.203125 31.332031 -37.144531 31.523438 -37.410156 31.429688 C -37.550781 30.941406 -37.585938 30.496094 -37.183594 30.214844 C -39.71875 30.253906 -41.96875 29.410156 -44.214844 28.851562 C -44.269531 28.351562 -43.6875 28.085938 -43.75 27.582031 C -42.335938 26.964844 -41.421875 26.605469 -39.648438 26.136719 C -39.398438 25.917969 -39.96875 25.746094 -39.675781 25.480469 C -39.152344 25.441406 -38.449219 25.257812 -38.183594 24.800781 C -38.648438 24.789062 -38.847656 24.925781 -39.421875 24.921875 C -39.382812 24.71875 -39.070312 24.617188 -39.03125 24.417969 C -39.898438 24.136719 -38.835938 23.160156 -39.414062 22.761719 C -39.25 22.53125 -38.707031 22.734375 -38.3125 22.589844 C -39 22.488281 -37.699219 22.304688 -37.542969 22.082031 C -37.632812 21.929688 -38.511719 22.484375 -38.300781 22.089844 C -39.480469 22.484375 -39.164062 22.230469 -40.105469 22.507812 C -40.226562 21.273438 -38.476562 20.394531 -36.644531 19.382812 C -36.976562 19.207031 -37.53125 18.851562 -37.363281 18.46875 C -37.5625 18.355469 -38.007812 18.757812 -38.289062 18.847656 C -38.34375 18.613281 -38.039062 18.507812 -38.039062 18.292969 C -38.367188 18.167969 -38.238281 18.464844 -38.621094 18.511719 C -38.371094 17.96875 -37.683594 17.972656 -37.1875 17.597656 C -37.800781 17.421875 -38.308594 17.835938 -38.988281 18.015625 C -38.964844 17.878906 -38.628906 17.859375 -38.820312 17.644531 C -39.167969 17.710938 -38.996094 17.964844 -39.507812 17.96875 C -39.621094 17.734375 -39.179688 17.707031 -39.375 17.441406 C -39.976562 17.671875 -40.714844 17.917969 -41.28125 17.964844 C -41.347656 17.675781 -40.929688 17.566406 -40.789062 17.351562 C -41.21875 17.3125 -41.449219 17.585938 -41.972656 17.707031 C -42.101562 17.371094 -42.183594 17.007812 -41.3125 16.726562 C -41.394531 16.554688 -41.363281 16.417969 -41.285156 16.304688 C -41.839844 16.195312 -42.03125 16.378906 -43.125 16.5625 C -43.394531 16.253906 -42.765625 15.832031 -42.964844 15.613281 C -43.425781 15.113281 -44.074219 15.371094 -45.003906 15.585938 C -44.6875 15.179688 -44.914062 15.015625 -44.582031 14.660156 C -45.238281 14.558594 -44.859375 14.167969 -44.941406 13.664062 C -44.726562 13.601562 -44.664062 13.699219 -44.441406 13.632812 C -44.355469 12.726562 -42.171875 12.59375 -42.105469 11.679688 C -42.695312 11.648438 -42.523438 10.8125 -43.082031 10.742188 C -42.640625 9.558594 -43.660156 7.839844 -41.472656 7.300781 C -41.675781 6.988281 -42.101562 6.917969 -42.78125 7.105469 C -42.753906 6.71875 -43.132812 6.75 -43.59375 6.875 C -43.492188 6.433594 -43.425781 6.386719 -43.980469 6.304688 C -43.589844 5.484375 -43.886719 4.816406 -43.566406 3.714844 C -38.527344 2.878906 -31.621094 1.324219 -27.179688 0.59375 C -27.066406 0.5625 -27.109375 0.476562 -27.097656 0.40625 C -26.046875 0.628906 -24.625 0.046875 -23.75 -0.449219 C -23.796875 -0.371094 -23.84375 -0.292969 -23.8125 -0.183594 C -23.277344 -0.25 -23.167969 -0.476562 -22.628906 -0.542969 C -21.554688 -0.605469 -17.828125 -1.960938 -15.367188 -2.550781 C -12.664062 -3.203125 -9.925781 -4.203125 -8.671875 -4.847656 C -8.089844 -4.265625 -6.769531 -4.835938 -5.335938 -5.203125 C -4.976562 -5.316406 -5.066406 -4.964844 -4.78125 -5 C -4.121094 -5.515625 -1.855469 -5.453125 -1.105469 -6.097656 C -1.082031 -6.320312 -1.222656 -6.371094 -1.523438 -6.253906 C -0.730469 -6.722656 0.410156 -6.652344 1.328125 -7.078125 C 1.230469 -7.136719 1.03125 -7.09375 1.03125 -7.257812 C 2.699219 -7.539062 4.507812 -7.667969 5.664062 -7.5 C 6.214844 -7.792969 6.632812 -7.628906 7.144531 -7.675781 C 8.617188 -7.808594 10.699219 -8.65625 12.402344 -9.054688 C 17.640625 -10.292969 22.898438 -11.015625 27.714844 -12.429688 C 27.8125 -12.367188 28.007812 -12.414062 28.007812 -12.25 C 31.808594 -13.160156 34.785156 -14.125 38.539062 -14.929688 C 38.527344 -15.148438 38.238281 -15.078125 38 -15.058594 C 38.941406 -15.355469 39.910156 -15.261719 40.738281 -15.273438 C 41.449219 -16.015625 42.238281 -15.53125 43.402344 -15.808594 C 43.511719 -15.648438 43.199219 -15.640625 43.214844 -15.515625 C 47.195312 -16.117188 50.425781 -18.128906 54.585938 -18.394531 C 54.710938 -18.5625 54.933594 -18.699219 55.253906 -18.792969 C 55.253906 -18.265625 54.105469 -18.160156 53.578125 -17.828125 C 55.425781 -18.226562 57.597656 -18.984375 59.886719 -19.035156 C 60.484375 -19.945312 62.765625 -19.984375 64.46875 -20.59375 C 64.53125 -20.472656 64.386719 -20.429688 64.402344 -20.328125 C 64.96875 -20.464844 65.347656 -20.398438 65.882812 -20.503906 C 65.828125 -20.773438 65.382812 -20.636719 64.984375 -20.546875 C 65.859375 -21.152344 67.359375 -20.78125 67.640625 -21.660156 C 68.316406 -21.714844 68.753906 -21.8125 69.050781 -22.152344 C 69.113281 -22.03125 68.96875 -21.988281 68.984375 -21.886719 C 72.417969 -22.191406 76.199219 -23.09375 80.519531 -24.054688 C 80.394531 -24.347656 79.65625 -24 79.363281 -24.117188 C 83.367188 -25.425781 88.242188 -25.289062 92.230469 -27.09375 C 91.578125 -27.207031 90.238281 -26.855469 89.753906 -26.851562 C 89.492188 -26.839844 88.988281 -26.570312 88.894531 -26.738281 C 90.277344 -27.011719 90.699219 -27.351562 91.867188 -27.589844 C 92.03125 -27.722656 92.054688 -27.902344 92.414062 -27.964844 C 92.1875 -27.738281 92.523438 -27.753906 92.523438 -27.492188 C 93.058594 -27.535156 93.167969 -27.734375 93.449219 -27.871094 C 94.1875 -27.671875 94.765625 -27.949219 95.492188 -28.34375 C 99.84375 -28.511719 105.035156 -30.382812 109.792969 -31.152344 C 108.746094 -30.511719 106.972656 -30.527344 106.054688 -29.789062 C 106.308594 -29.632812 107.226562 -30.164062 107.109375 -29.617188 C 107.632812 -29.691406 107.539062 -29.988281 108.015625 -30.078125 C 108.195312 -30.007812 108.238281 -29.820312 108.105469 -29.683594 C 109.042969 -30.09375 110.867188 -30.460938 112.148438 -30.285156 C 111.789062 -30.199219 111.429688 -30.117188 111.066406 -30.035156 C 113.613281 -30.402344 117.582031 -30.8125 120.472656 -31.542969 C 120.824219 -31.199219 120.988281 -31.648438 121.976562 -31.644531 Z M 35.039062 -13.625 C 35.625 -13.800781 36.277344 -13.847656 35.832031 -13.476562 C 36.328125 -13.558594 36.410156 -13.792969 36.742188 -13.933594 C 36.230469 -13.820312 36.414062 -14.046875 36.546875 -14.222656 C 36.148438 -13.828125 34.996094 -14.160156 35.039062 -13.625 Z M 93.476562 -27.214844 C 93.320312 -27.199219 93.203125 -27.28125 93.253906 -27.082031 C 93.867188 -27.234375 94.4375 -27.4375 94.816406 -27.445312 C 94.703125 -27.769531 93.710938 -27.488281 93.476562 -27.214844 Z M 60.679688 -17.808594 C 60.628906 -17.496094 61.390625 -17.796875 61.28125 -17.949219 C 60.980469 -17.886719 60.875 -18.007812 60.679688 -17.808594 Z M 61.558594 -17.847656 C 61.949219 -17.988281 62.699219 -18.003906 62.863281 -18.230469 C 62.210938 -18.125 61.894531 -18.28125 61.558594 -17.847656 Z M 44.476562 -10.078125 C 44.871094 -9.917969 45.488281 -10.367188 45.613281 -10.089844 C 45.972656 -10.167969 46.171875 -10.464844 46.4375 -10.363281 C 46.414062 -10.46875 46.390625 -10.574219 46.363281 -10.679688 C 45.785156 -10.460938 44.949219 -10.335938 44.476562 -10.078125 Z M 101.75 -18.835938 C 102.09375 -18.996094 102.609375 -19.09375 102.636719 -19.371094 C 102.167969 -19.257812 101.566406 -19.1875 101.75 -18.835938 Z M 104.523438 -18.894531 C 106.15625 -19.425781 103.75 -18.960938 103.5625 -18.671875 C 103.957031 -18.78125 104.277344 -18.816406 104.523438 -18.894531 Z M -3.566406 10.65625 C -3.460938 10.699219 -2.8125 10.570312 -2.882812 10.332031 C -3.203125 10.410156 -3.601562 10.453125 -3.566406 10.65625 Z M 33.332031 6.941406 C 33.417969 6.613281 32.546875 6.792969 32.453125 6.980469 C 32.90625 6.796875 32.820312 7.183594 33.332031 6.941406 Z M 35.253906 6.496094 C 36.355469 6.394531 37.21875 6.054688 38.519531 5.824219 C 37.835938 5.859375 35.855469 6.046875 35.253906 6.496094 Z M 41.527344 5.132812 C 41.339844 5.167969 41.113281 5.238281 41.132812 5.054688 C 40.441406 5.386719 39.292969 5.453125 38.726562 5.613281 C 40.109375 5.578125 40.75 5.496094 41.527344 5.132812 Z M 28.972656 8.363281 C 28.179688 8.675781 26.953125 8.601562 26.703125 8.972656 C 28.164062 8.867188 31.304688 8.253906 32.839844 7.554688 C 31.546875 7.757812 30.726562 7.746094 29.554688 8.148438 C 30.554688 8.226562 28.695312 8.234375 28.695312 8.261719 C 28.835938 8.25 28.902344 8.308594 28.972656 8.363281 Z M 42.445312 5.25 C 42.726562 5.1875 43.003906 5.121094 43.285156 5.054688 C 43.261719 4.726562 42.4375 5.113281 42.445312 5.25 Z M 33.199219 7.46875 C 33.128906 7.492188 33.0625 7.515625 33.097656 7.574219 C 33.636719 7.496094 35.253906 7.027344 33.921875 7.304688 C 33.632812 7.1875 33.546875 7.464844 33.300781 7.363281 C 33.28125 7.316406 33.261719 7.273438 33.164062 7.3125 C 33.175781 7.367188 33.1875 7.417969 33.199219 7.46875 Z M 26.453125 9.527344 C 26.367188 9.714844 26.046875 9.8125 25.925781 9.980469 C 28.574219 9.519531 33.027344 8.410156 36.027344 7.644531 C 33.257812 7.820312 29.679688 9.089844 26.453125 9.527344 Z M 113.6875 -6.652344 C 115.039062 -6.429688 116.875 -6.648438 118.402344 -7.078125 C 116.808594 -6.796875 114.898438 -7.183594 113.6875 -6.652344 Z M 108.578125 -4.640625 C 109.019531 -4.492188 110.03125 -4.769531 110.382812 -5.058594 C 110.390625 -4.871094 110.480469 -4.769531 110.695312 -4.800781 C 110.867188 -5.007812 110.570312 -4.933594 110.742188 -5.144531 C 110.007812 -5.304688 109.335938 -4.984375 108.578125 -4.640625 Z M 106.429688 -4.0625 C 106.90625 -4.199219 107.128906 -4.078125 107.652344 -4.261719 C 107.519531 -4.65625 106.402344 -4.226562 106.429688 -4.0625 Z M 117.058594 -5.773438 C 117.46875 -5.792969 117.820312 -5.886719 118.519531 -6.027344 C 118.425781 -6.386719 117.445312 -5.929688 117.058594 -5.773438 Z M 10.546875 21.839844 C 10.277344 22.039062 9.34375 21.957031 9 22.277344 C 9.324219 22.457031 10.433594 22.160156 10.546875 21.839844 Z M 63.050781 10.53125 C 62.621094 10.691406 62.335938 10.492188 62.089844 10.753906 C 62.617188 11.011719 63.59375 10.675781 64.425781 10.464844 C 65.769531 10.117188 67.003906 9.632812 68.378906 9.46875 C 67 9.320312 64.035156 10.234375 63.050781 10.53125 Z M 70.285156 8.941406 C 70.835938 8.917969 72.058594 8.554688 72.773438 8.199219 C 71.910156 8.492188 70.304688 8.441406 70.285156 8.941406 Z M 77.585938 7.089844 C 77.636719 7.445312 76.402344 7.324219 76.457031 7.679688 C 77.085938 7.671875 77.492188 7.46875 78.003906 7.242188 C 78.109375 7.4375 78.15625 7.484375 78.472656 7.628906 C 80.824219 6.375 83.5 6.941406 85.753906 5.699219 C 83.023438 5.949219 80.335938 6.949219 77.585938 7.089844 Z M 55.527344 12.519531 C 54.914062 12.65625 54.058594 12.496094 53.878906 13.066406 C 56.078125 12.710938 58.21875 12.167969 60.300781 11.25 C 58.734375 11.59375 57.039062 12.175781 55.527344 12.519531 Z M 55.527344 12.519531 " fill-opacity="1" fill-rule="evenodd"/></g></g></g><g clip-path="url(#f953b12e5b)"><g clip-path="url(#4e1f61ebef)"><g clip-path="url(#d1327b6e84)"><path fill="#000000" d="M 127.5625 77 C 126.902344 76.921875 126.070312 77.027344 125.226562 77.140625 C 125.273438 77.085938 125.28125 77.015625 125.253906 76.933594 C 124.785156 77.023438 124.628906 77.226562 124.117188 77.300781 C 124.25 77.164062 124.105469 77.113281 123.867188 77.207031 C 123.980469 77.050781 124.449219 77.027344 124.46875 77.167969 C 124.558594 77.132812 124.519531 77.054688 124.445312 77.070312 C 125.644531 76.871094 126.820312 76.402344 127.878906 76.375 C 127.191406 76.097656 125.261719 76.539062 124.3125 76.5 C 124.347656 76.378906 124.753906 76.351562 124.699219 76.511719 C 124.785156 76.441406 124.957031 76.40625 124.957031 76.304688 C 125.777344 76.28125 126.6875 76.140625 127.464844 75.921875 C 128.441406 76.0625 129.683594 75.925781 130.332031 76.410156 C 130.449219 76.789062 130.390625 77.019531 130.539062 77.3125 C 130.398438 77.769531 130.230469 78.214844 129.839844 78.578125 C 130.242188 78.898438 130.496094 79.148438 130.601562 79.550781 C 130.523438 79.652344 130.105469 79.847656 130.4375 79.839844 C 130.300781 79.933594 130.160156 80.027344 130.046875 80.132812 C 130.113281 80.246094 130.484375 80.199219 130.332031 80.367188 C 130.089844 80.460938 130.035156 80.359375 129.8125 80.433594 C 129.929688 80.703125 130.488281 80.699219 130.714844 81.027344 C 130.992188 81.433594 130.78125 82.039062 130.921875 82.582031 C 130.210938 82.746094 130.621094 83.390625 129.613281 83.535156 C 130.429688 83.671875 131.59375 83.742188 132.523438 83.5625 C 132.734375 83.71875 133.089844 84.175781 132.722656 84.417969 C 132.828125 84.484375 132.949219 84.535156 133.070312 84.585938 C 132.941406 84.738281 132.328125 84.761719 132.617188 84.941406 C 131.917969 85.222656 130.941406 85.261719 130.515625 85.78125 C 130.554688 85.898438 130.804688 85.792969 130.914062 85.839844 C 130.964844 85.953125 130.839844 86.148438 130.929688 86.234375 C 131.359375 86.242188 131.175781 86.367188 131.554688 86.289062 C 131.492188 86.441406 131.378906 86.574219 131.101562 86.644531 C 131.351562 86.71875 131.757812 86.625 131.902344 86.8125 C 131.125 87.222656 130.730469 87.148438 129.820312 87.394531 C 131.191406 87.339844 132.441406 87.410156 133.605469 87.566406 C 133.667969 87.773438 133.726562 87.976562 133.550781 87.980469 C 133.71875 88.101562 133.804688 87.964844 133.902344 87.851562 C 134.074219 88.242188 134.167969 88.484375 134.617188 88.636719 C 134.550781 89.007812 134.015625 88.984375 133.597656 89.171875 C 133.710938 89.386719 133.855469 89.570312 134.214844 89.53125 C 134.082031 90.015625 132.835938 90.230469 132.449219 90.488281 C 132.679688 90.734375 133.082031 90.398438 133.464844 90.253906 C 133.410156 90.46875 133.65625 90.367188 133.675781 90.503906 C 132.394531 90.84375 132.367188 91.257812 130.984375 91.429688 C 131.226562 92.675781 130.421875 93.539062 130.113281 94.585938 C 129.457031 94.613281 129.226562 94.882812 128.945312 95.15625 C 128.945312 95.296875 129.332031 95.027344 129.332031 95.167969 C 128.800781 95.460938 127.996094 95.613281 127.199219 95.863281 C 126.453125 96.09375 125.8125 96.238281 125.28125 96.15625 C 121.644531 97.46875 118.632812 97.753906 114.746094 98.851562 C 114.644531 98.710938 114.96875 98.730469 114.917969 98.609375 C 113.707031 98.875 111.667969 99.707031 110.433594 99.699219 C 110.207031 99.796875 110.292969 99.570312 110.171875 99.558594 C 109.257812 99.792969 108.5 100.285156 107.851562 100.097656 C 106.527344 100.316406 105.164062 101.035156 104.148438 100.957031 C 100.347656 101.878906 97.308594 102.738281 94.023438 103.105469 C 92.175781 103.425781 90.714844 103.886719 88.851562 104.203125 C 89.058594 103.917969 89.664062 103.777344 90.164062 103.597656 C 89.472656 103.671875 88.375 103.898438 87.46875 104.171875 C 84.433594 105.085938 81.203125 105.734375 78.027344 106.3125 C 77.859375 106.234375 78.035156 106.253906 78.066406 106.152344 C 77.414062 106.136719 76.8125 106.496094 76.277344 106.667969 C 76.121094 106.609375 76.242188 106.550781 76.222656 106.429688 C 75.585938 106.507812 75.816406 106.671875 75.46875 106.804688 C 75.140625 106.925781 75.539062 106.660156 75.289062 106.695312 C 75.128906 106.710938 75.167969 106.796875 75.175781 106.871094 C 74.332031 106.992188 73.65625 107.101562 72.699219 107.398438 C 72.40625 107.488281 72.730469 107.265625 72.511719 107.242188 C 71.285156 107.496094 69.613281 108.164062 68.253906 108.328125 C 67.609375 108.40625 67.226562 108.566406 66.511719 108.730469 C 65.902344 108.875 65.25 108.757812 64.550781 108.835938 C 63.972656 108.902344 63.179688 109.285156 62.300781 109.355469 C 62.300781 109.285156 62.515625 109.289062 62.496094 109.210938 C 60.042969 109.851562 57.015625 110.542969 54.730469 111.3125 C 51.863281 111.765625 48.703125 112.957031 46.140625 113.503906 C 46.1875 113.417969 46.300781 113.359375 46.480469 113.324219 C 43.941406 113.695312 40.097656 114.519531 36.9375 115.339844 C 36.640625 115.433594 36.683594 115.648438 36.257812 115.695312 C 36.125 116.011719 35.542969 116.164062 35.183594 116.347656 C 35.121094 116.378906 34.929688 116.550781 34.851562 116.574219 C 33.703125 116.882812 33.851562 115.925781 33.105469 115.625 C 32.792969 115.84375 32.449219 115.976562 32.089844 115.863281 C 32.046875 115.554688 32.582031 115.464844 32.703125 115.21875 C 32.597656 115.171875 32.261719 115.15625 32.269531 115.320312 C 32.082031 115.261719 32.050781 115.109375 32.191406 114.988281 C 31.929688 115.019531 32.054688 115.195312 31.792969 115.230469 C 31.738281 115.136719 31.8125 115.09375 31.820312 115.023438 C 31.582031 115.046875 31.617188 115.164062 31.457031 115.105469 C 31.371094 114.8125 31.351562 114.546875 31.59375 114.375 C 30.0625 114.398438 28.707031 113.890625 27.351562 113.554688 C 27.316406 113.253906 27.667969 113.09375 27.632812 112.789062 C 28.484375 112.417969 29.035156 112.199219 30.105469 111.917969 C 30.253906 111.785156 29.910156 111.679688 30.089844 111.519531 C 30.40625 111.496094 30.828125 111.386719 30.988281 111.109375 C 30.707031 111.101562 30.585938 111.1875 30.242188 111.183594 C 30.265625 111.0625 30.453125 111 30.476562 110.878906 C 29.953125 110.710938 30.59375 110.121094 30.246094 109.878906 C 30.34375 109.742188 30.671875 109.863281 30.910156 109.777344 C 30.492188 109.714844 31.277344 109.605469 31.371094 109.46875 C 31.320312 109.378906 30.789062 109.710938 30.914062 109.476562 C 30.203125 109.710938 30.394531 109.558594 29.828125 109.726562 C 29.753906 108.984375 30.808594 108.453125 31.914062 107.84375 C 31.714844 107.734375 31.378906 107.519531 31.480469 107.292969 C 31.359375 107.222656 31.089844 107.464844 30.921875 107.519531 C 30.890625 107.378906 31.070312 107.316406 31.070312 107.1875 C 30.875 107.109375 30.953125 107.289062 30.71875 107.316406 C 30.871094 106.988281 31.285156 106.992188 31.585938 106.765625 C 31.214844 106.660156 30.910156 106.910156 30.5 107.019531 C 30.511719 106.9375 30.714844 106.925781 30.601562 106.792969 C 30.390625 106.832031 30.496094 106.988281 30.1875 106.988281 C 30.117188 106.847656 30.382812 106.832031 30.265625 106.671875 C 29.902344 106.8125 29.457031 106.960938 29.117188 106.988281 C 29.074219 106.8125 29.328125 106.746094 29.414062 106.617188 C 29.15625 106.59375 29.015625 106.761719 28.699219 106.832031 C 28.621094 106.632812 28.570312 106.410156 29.097656 106.242188 C 29.046875 106.136719 29.066406 106.054688 29.113281 105.984375 C 28.777344 105.921875 28.664062 106.03125 28.003906 106.144531 C 27.839844 105.957031 28.222656 105.703125 28.101562 105.570312 C 27.820312 105.269531 27.433594 105.425781 26.871094 105.554688 C 27.0625 105.3125 26.925781 105.210938 27.125 104.996094 C 26.730469 104.933594 26.957031 104.699219 26.90625 104.394531 C 27.035156 104.359375 27.074219 104.417969 27.207031 104.375 C 27.261719 103.828125 28.578125 103.746094 28.617188 103.199219 C 28.261719 103.179688 28.367188 102.675781 28.027344 102.632812 C 28.292969 101.917969 27.675781 100.882812 28.996094 100.554688 C 28.875 100.367188 28.617188 100.324219 28.207031 100.4375 C 28.222656 100.207031 27.996094 100.226562 27.714844 100.300781 C 27.777344 100.03125 27.816406 100.007812 27.484375 99.957031 C 27.71875 99.460938 27.539062 99.058594 27.734375 98.394531 C 30.773438 97.886719 34.933594 96.945312 37.613281 96.503906 C 37.683594 96.488281 37.65625 96.433594 37.664062 96.394531 C 38.300781 96.527344 39.15625 96.175781 39.683594 95.875 C 39.65625 95.921875 39.625 95.96875 39.644531 96.035156 C 39.96875 95.992188 40.035156 95.859375 40.359375 95.820312 C 41.007812 95.777344 43.253906 94.960938 44.738281 94.601562 C 46.367188 94.207031 48.019531 93.605469 48.773438 93.214844 C 49.125 93.566406 49.921875 93.222656 50.789062 93 C 51.003906 92.929688 50.949219 93.144531 51.121094 93.121094 C 51.519531 92.808594 52.886719 92.847656 53.335938 92.457031 C 53.351562 92.324219 53.269531 92.292969 53.085938 92.367188 C 53.5625 92.082031 54.25 92.121094 54.804688 91.867188 C 54.746094 91.832031 54.628906 91.855469 54.628906 91.757812 C 55.632812 91.589844 56.722656 91.507812 57.421875 91.609375 C 57.753906 91.433594 58.003906 91.53125 58.3125 91.503906 C 59.203125 91.421875 60.457031 90.910156 61.484375 90.667969 C 64.644531 89.917969 67.8125 89.484375 70.71875 88.628906 C 70.777344 88.664062 70.894531 88.636719 70.894531 88.738281 C 73.1875 88.183594 74.984375 87.601562 77.246094 87.113281 C 77.238281 86.984375 77.066406 87.027344 76.921875 87.039062 C 77.488281 86.859375 78.074219 86.914062 78.574219 86.90625 C 79 86.460938 79.476562 86.753906 80.179688 86.585938 C 80.246094 86.679688 80.058594 86.683594 80.066406 86.761719 C 82.46875 86.394531 84.414062 85.179688 86.925781 85.019531 C 87 84.917969 87.132812 84.835938 87.328125 84.777344 C 87.328125 85.097656 86.632812 85.160156 86.316406 85.363281 C 87.429688 85.121094 88.738281 84.664062 90.121094 84.628906 C 90.480469 84.082031 91.855469 84.058594 92.882812 83.691406 C 92.921875 83.761719 92.832031 83.789062 92.84375 83.847656 C 93.183594 83.769531 93.414062 83.804688 93.734375 83.742188 C 93.703125 83.578125 93.433594 83.664062 93.195312 83.71875 C 93.722656 83.351562 94.625 83.574219 94.796875 83.046875 C 95.203125 83.011719 95.46875 82.953125 95.644531 82.746094 C 95.683594 82.820312 95.597656 82.847656 95.605469 82.910156 C 97.675781 82.722656 99.957031 82.175781 102.5625 81.597656 C 102.488281 81.417969 102.042969 81.628906 101.867188 81.558594 C 104.28125 80.765625 107.21875 80.847656 109.625 79.757812 C 109.234375 79.691406 108.421875 79.902344 108.132812 79.90625 C 107.976562 79.910156 107.667969 80.074219 107.613281 79.972656 C 108.445312 79.808594 108.699219 79.601562 109.40625 79.457031 C 109.503906 79.378906 109.519531 79.269531 109.734375 79.230469 C 109.601562 79.367188 109.800781 79.359375 109.800781 79.515625 C 110.125 79.492188 110.191406 79.371094 110.359375 79.289062 C 110.804688 79.40625 111.15625 79.242188 111.59375 79 C 114.21875 78.898438 117.347656 77.769531 120.21875 77.300781 C 119.585938 77.691406 118.515625 77.679688 117.960938 78.125 C 118.113281 78.222656 118.667969 77.898438 118.597656 78.230469 C 118.914062 78.1875 118.855469 78.003906 119.144531 77.953125 C 119.253906 77.992188 119.277344 78.105469 119.199219 78.191406 C 119.765625 77.941406 120.863281 77.71875 121.636719 77.824219 C 121.421875 77.875 121.203125 77.925781 120.984375 77.976562 C 122.519531 77.753906 124.914062 77.503906 126.65625 77.0625 C 126.871094 77.269531 126.96875 77 127.5625 77 Z M 75.136719 87.90625 C 75.492188 87.796875 75.882812 87.769531 75.613281 87.992188 C 75.914062 87.945312 75.960938 87.804688 76.160156 87.71875 C 75.855469 87.785156 75.964844 87.648438 76.046875 87.542969 C 75.804688 87.78125 75.109375 87.582031 75.136719 87.90625 Z M 110.375 79.683594 C 110.28125 79.695312 110.210938 79.644531 110.242188 79.765625 C 110.613281 79.671875 110.957031 79.550781 111.183594 79.546875 C 111.117188 79.347656 110.519531 79.519531 110.375 79.683594 Z M 90.597656 85.371094 C 90.570312 85.558594 91.027344 85.378906 90.960938 85.285156 C 90.78125 85.324219 90.71875 85.25 90.597656 85.371094 Z M 91.128906 85.347656 C 91.367188 85.261719 91.816406 85.253906 91.914062 85.117188 C 91.523438 85.179688 91.332031 85.085938 91.128906 85.347656 Z M 80.828125 90.039062 C 81.066406 90.136719 81.4375 89.867188 81.515625 90.03125 C 81.730469 89.984375 81.851562 89.804688 82.011719 89.867188 C 81.996094 89.804688 81.984375 89.738281 81.96875 89.675781 C 81.617188 89.808594 81.117188 89.882812 80.828125 90.039062 Z M 115.371094 84.734375 C 115.578125 84.636719 115.890625 84.578125 115.90625 84.410156 C 115.621094 84.480469 115.261719 84.523438 115.371094 84.734375 Z M 117.042969 84.699219 C 118.027344 84.378906 116.578125 84.65625 116.460938 84.832031 C 116.703125 84.769531 116.894531 84.746094 117.042969 84.699219 Z M 51.859375 102.566406 C 51.925781 102.589844 52.316406 102.511719 52.273438 102.371094 C 52.082031 102.414062 51.839844 102.441406 51.859375 102.566406 Z M 74.113281 100.308594 C 74.167969 100.113281 73.640625 100.222656 73.585938 100.332031 C 73.859375 100.222656 73.804688 100.457031 74.113281 100.308594 Z M 75.273438 100.039062 C 75.9375 99.976562 76.457031 99.773438 77.242188 99.632812 C 76.832031 99.65625 75.636719 99.769531 75.273438 100.039062 Z M 79.058594 99.214844 C 78.941406 99.234375 78.808594 99.277344 78.816406 99.167969 C 78.402344 99.367188 77.707031 99.410156 77.367188 99.503906 C 78.203125 99.484375 78.589844 99.433594 79.058594 99.214844 Z M 71.484375 101.167969 C 71.007812 101.359375 70.265625 101.3125 70.117188 101.535156 C 71 101.472656 72.894531 101.101562 73.816406 100.679688 C 73.039062 100.800781 72.542969 100.796875 71.835938 101.039062 C 72.441406 101.085938 71.320312 101.089844 71.320312 101.109375 C 71.402344 101.101562 71.445312 101.136719 71.484375 101.167969 Z M 79.609375 99.285156 C 79.777344 99.246094 79.945312 99.207031 80.117188 99.167969 C 80.101562 98.96875 79.605469 99.203125 79.609375 99.285156 Z M 74.035156 100.628906 C 73.992188 100.640625 73.953125 100.65625 73.972656 100.691406 C 74.296875 100.644531 75.273438 100.359375 74.46875 100.527344 C 74.296875 100.457031 74.246094 100.625 74.097656 100.5625 C 74.085938 100.535156 74.074219 100.511719 74.011719 100.53125 C 74.019531 100.566406 74.027344 100.597656 74.035156 100.628906 Z M 69.96875 101.871094 C 69.914062 101.984375 69.722656 102.042969 69.648438 102.144531 C 71.246094 101.867188 73.929688 101.195312 75.742188 100.734375 C 74.070312 100.839844 71.914062 101.609375 69.96875 101.871094 Z M 122.574219 92.078125 C 123.390625 92.210938 124.496094 92.078125 125.417969 91.820312 C 124.457031 91.992188 123.304688 91.757812 122.574219 92.078125 Z M 119.492188 93.292969 C 119.761719 93.382812 120.371094 93.214844 120.582031 93.042969 C 120.585938 93.152344 120.640625 93.214844 120.769531 93.199219 C 120.875 93.070312 120.695312 93.117188 120.800781 92.988281 C 120.355469 92.894531 119.949219 93.085938 119.492188 93.292969 Z M 118.199219 93.644531 C 118.484375 93.558594 118.621094 93.632812 118.9375 93.523438 C 118.855469 93.285156 118.183594 93.542969 118.199219 93.644531 Z M 124.609375 92.609375 C 124.855469 92.59375 125.070312 92.539062 125.492188 92.453125 C 125.433594 92.234375 124.84375 92.511719 124.609375 92.609375 Z M 60.378906 109.304688 C 60.214844 109.425781 59.652344 109.375 59.445312 109.570312 C 59.640625 109.675781 60.308594 109.5 60.378906 109.304688 Z M 92.039062 102.464844 C 91.78125 102.558594 91.609375 102.441406 91.460938 102.597656 C 91.777344 102.753906 92.367188 102.550781 92.871094 102.421875 C 93.679688 102.210938 94.425781 101.917969 95.253906 101.820312 C 94.421875 101.730469 92.632812 102.285156 92.039062 102.464844 Z M 96.402344 101.5 C 96.734375 101.488281 97.472656 101.265625 97.90625 101.054688 C 97.382812 101.230469 96.414062 101.199219 96.402344 101.5 Z M 100.804688 100.378906 C 100.839844 100.59375 100.09375 100.523438 100.125 100.738281 C 100.503906 100.734375 100.75 100.609375 101.058594 100.472656 C 101.121094 100.589844 101.152344 100.621094 101.339844 100.707031 C 102.757812 99.949219 104.375 100.289062 105.734375 99.539062 C 104.085938 99.691406 102.464844 100.296875 100.804688 100.378906 Z M 87.503906 103.664062 C 87.132812 103.75 86.617188 103.652344 86.511719 103.996094 C 87.835938 103.78125 89.125 103.453125 90.382812 102.898438 C 89.4375 103.105469 88.417969 103.457031 87.503906 103.664062 Z M 87.503906 103.664062 " fill-opacity="1" fill-rule="evenodd"/></g></g></g><g fill="#ffffff" fill-opacity="1"><g transform="translate(49.033872, 106.65572)"><g><path d="M 4.34375 -7.53125 C 4.65625 -7.195312 4.960938 -6.832031 5.265625 -6.4375 C 5.617188 -4.71875 5.488281 -3.335938 4.875 -2.296875 C 4.257812 -1.253906 3.128906 -0.476562 1.484375 0.03125 L 1.109375 -0.84375 C 2.410156 -1.269531 3.316406 -1.84375 3.828125 -2.5625 C 4.335938 -3.289062 4.507812 -4.28125 4.34375 -5.53125 L -0.296875 -4.515625 L -0.515625 -5.46875 L 4.171875 -6.5 C 4.054688 -6.644531 3.90625 -6.820312 3.71875 -7.03125 Z M 6.3125 -6.921875 L 5.671875 -6.40625 C 5.273438 -6.863281 4.992188 -7.191406 4.828125 -7.390625 L 5.484375 -7.921875 C 5.796875 -7.535156 6.070312 -7.203125 6.3125 -6.921875 Z M 6.3125 -6.921875 "/></g></g></g><g fill="#ffffff" fill-opacity="1"><g transform="translate(56.753659, 104.962487)"><g><path d="M 0.453125 -6.046875 L 1.484375 -6.265625 L 1.828125 -4.75 C 2.046875 -3.71875 2.160156 -2.910156 2.171875 -2.328125 C 2.179688 -1.742188 2.09375 -1.269531 1.90625 -0.90625 C 1.726562 -0.539062 1.425781 -0.191406 1 0.140625 L 0.25 -0.578125 C 0.46875 -0.753906 0.632812 -0.910156 0.75 -1.046875 C 0.875 -1.191406 0.972656 -1.359375 1.046875 -1.546875 C 1.128906 -1.742188 1.164062 -1.976562 1.15625 -2.25 C 1.144531 -2.519531 1.113281 -2.828125 1.0625 -3.171875 C 1.007812 -3.515625 0.921875 -3.96875 0.796875 -4.53125 Z M 4.59375 -1.828125 C 5.0625 -2.054688 5.375 -2.394531 5.53125 -2.84375 C 5.695312 -3.300781 5.726562 -3.90625 5.625 -4.65625 L 6.625 -4.75 C 6.914062 -2.414062 6.023438 -1.023438 3.953125 -0.578125 L 3.78125 -0.53125 L 2.46875 -6.484375 L 3.515625 -6.71875 Z M 4.59375 -1.828125 "/></g></g></g><g fill="#ffffff" fill-opacity="1"><g transform="translate(64.473446, 103.269255)"><g><path d="M 0.171875 -2.359375 L -0.046875 -3.359375 L 6.1875 -4.734375 L 6.40625 -3.734375 Z M 0.171875 -2.359375 "/></g></g></g><g fill="#ffffff" fill-opacity="1"><g transform="translate(72.193232, 101.576022)"><g><path d="M 0.359375 -4.890625 L 0.140625 -5.828125 L 4.96875 -6.890625 L 5.1875 -5.953125 C 5 -5.085938 4.671875 -4.238281 4.203125 -3.40625 C 5.160156 -2.863281 6.007812 -2.359375 6.75 -1.890625 L 6.203125 -1.046875 C 5.304688 -1.628906 4.460938 -2.144531 3.671875 -2.59375 C 2.984375 -1.601562 2.15625 -0.738281 1.1875 0 L 0.5625 -0.734375 C 1.46875 -1.453125 2.210938 -2.234375 2.796875 -3.078125 C 3.390625 -3.921875 3.804688 -4.796875 4.046875 -5.703125 Z M 0.359375 -4.890625 "/></g></g></g><g fill="#ffffff" fill-opacity="1"><g transform="translate(79.913019, 99.882789)"><g><path d="M 0.234375 -6.203125 L 3.265625 -6.875 L 3.40625 -6.21875 C 3.65625 -5.070312 4.109375 -4.109375 4.765625 -3.328125 C 5.429688 -2.546875 6.253906 -2 7.234375 -1.6875 L 6.84375 -0.796875 C 6.195312 -0.960938 5.566406 -1.304688 4.953125 -1.828125 C 4.347656 -2.347656 3.832031 -2.96875 3.40625 -3.6875 C 3.25 -2.875 2.957031 -2.09375 2.53125 -1.34375 C 2.101562 -0.601562 1.585938 0.00390625 0.984375 0.484375 L 0.28125 -0.15625 C 1.125 -0.914062 1.75 -1.789062 2.15625 -2.78125 C 2.5625 -3.78125 2.664062 -4.71875 2.46875 -5.59375 L 2.4375 -5.765625 L 0.421875 -5.328125 Z M 0.234375 -6.203125 "/></g></g></g><g fill="#ffffff" fill-opacity="1"><g transform="translate(87.632804, 98.189557)"><g><path d="M 5.1875 -5.234375 L 3.90625 -4.953125 L 4.046875 -4.296875 L 5.328125 -4.578125 Z M 5.046875 -5.90625 L 4.90625 -6.546875 L 3.625 -6.265625 L 3.765625 -5.625 Z M 0.640625 -4.234375 L 0.78125 -3.578125 L 1.984375 -3.84375 L 1.84375 -4.5 Z M 0.5 -4.90625 L 1.703125 -5.171875 L 1.5625 -5.8125 L 0.359375 -5.546875 Z M 5.734375 -7.5625 L 6.921875 -2.140625 C 6.960938 -1.929688 6.988281 -1.765625 7 -1.640625 C 7.019531 -1.523438 7.023438 -1.410156 7.015625 -1.296875 C 7.003906 -1.191406 6.984375 -1.109375 6.953125 -1.046875 C 6.921875 -0.992188 6.859375 -0.9375 6.765625 -0.875 C 6.679688 -0.820312 6.582031 -0.78125 6.46875 -0.75 C 6.363281 -0.726562 6.207031 -0.691406 6 -0.640625 C 5.71875 -0.578125 5.3125 -0.5 4.78125 -0.40625 L 4.53125 -1.25 C 5.195312 -1.375 5.554688 -1.441406 5.609375 -1.453125 C 5.796875 -1.492188 5.90625 -1.535156 5.9375 -1.578125 C 5.96875 -1.617188 5.960938 -1.722656 5.921875 -1.890625 L 5.5 -3.828125 L 3.375 -3.359375 L 2.609375 -6.875 Z M -0.828125 -6.125 L 2.234375 -6.796875 L 3 -3.28125 L 0.953125 -2.828125 L 1.640625 0.328125 L 0.625 0.546875 Z M -0.828125 -6.125 "/></g></g></g><g fill="#ffffff" fill-opacity="1"><g transform="translate(95.352589, 96.496324)"><g><path d="M 2.421875 -5.109375 L 2.21875 -5.984375 L 5.453125 -6.703125 L 5.65625 -5.828125 Z M 0.953125 -6.203125 C 0.898438 -5.234375 0.992188 -4.203125 1.234375 -3.109375 C 1.472656 -2.023438 1.816406 -1.050781 2.265625 -0.1875 L 1.296875 0.140625 C 0.828125 -0.765625 0.46875 -1.773438 0.21875 -2.890625 C -0.0195312 -4.015625 -0.117188 -5.082031 -0.078125 -6.09375 Z M 6.46875 -2.46875 L 6.796875 -1.625 C 6.242188 -1.351562 5.660156 -1.148438 5.046875 -1.015625 C 4.335938 -0.859375 3.75 -0.867188 3.28125 -1.046875 C 2.8125 -1.222656 2.523438 -1.539062 2.421875 -2 C 2.378906 -2.21875 2.40625 -2.492188 2.5 -2.828125 C 2.601562 -3.171875 2.769531 -3.507812 3 -3.84375 L 3.84375 -3.4375 C 3.6875 -3.1875 3.566406 -2.957031 3.484375 -2.75 C 3.410156 -2.539062 3.390625 -2.378906 3.421875 -2.265625 C 3.515625 -1.835938 3.992188 -1.722656 4.859375 -1.921875 C 5.398438 -2.035156 5.9375 -2.21875 6.46875 -2.46875 Z M 6.46875 -2.46875 "/></g></g></g><g fill="#ffffff" fill-opacity="1"><g transform="translate(103.072373, 94.803092)"><g><path d="M 1.203125 -6.5625 L 2.21875 -6.75 C 2.257812 -6.425781 2.296875 -6.132812 2.328125 -5.875 L 5.015625 -6.46875 L 5.203125 -5.609375 L 2.46875 -5.015625 C 2.488281 -4.867188 2.535156 -4.554688 2.609375 -4.078125 L 4.859375 -4.578125 L 5.046875 -3.71875 L 2.765625 -3.203125 C 2.804688 -2.972656 2.867188 -2.675781 2.953125 -2.3125 C 3.054688 -1.832031 3.195312 -1.535156 3.375 -1.421875 C 3.550781 -1.316406 3.894531 -1.320312 4.40625 -1.4375 C 4.96875 -1.5625 5.335938 -1.71875 5.515625 -1.90625 C 5.703125 -2.09375 5.757812 -2.351562 5.6875 -2.6875 C 5.65625 -2.832031 5.570312 -3.03125 5.4375 -3.28125 L 6.328125 -3.71875 C 6.472656 -3.363281 6.578125 -3.0625 6.640625 -2.8125 C 6.765625 -2.21875 6.660156 -1.734375 6.328125 -1.359375 C 6.003906 -0.992188 5.425781 -0.71875 4.59375 -0.53125 C 3.75 -0.34375 3.140625 -0.359375 2.765625 -0.578125 C 2.390625 -0.796875 2.117188 -1.300781 1.953125 -2.09375 C 1.890625 -2.34375 1.820312 -2.640625 1.75 -2.984375 L 0.125 -2.625 L -0.0625 -3.484375 L 1.609375 -3.859375 C 1.523438 -4.328125 1.472656 -4.640625 1.453125 -4.796875 L -0.046875 -4.453125 L -0.234375 -5.3125 L 1.328125 -5.65625 C 1.316406 -5.769531 1.296875 -5.925781 1.265625 -6.125 C 1.234375 -6.320312 1.210938 -6.46875 1.203125 -6.5625 Z M 1.203125 -6.5625 "/></g></g></g><g clip-path="url(#86fe6b2bcb)"><g clip-path="url(#e71750d48a)"><g clip-path="url(#2b7af982ad)"><path fill="#fcfcfc" d="M 68.234375 63.875 L 11.984375 76.421875 L 12.898438 77 L 7.144531 51.207031 L 6.566406 52.121094 L 130.027344 24.585938 C 130.566406 24.464844 131.179688 24.414062 131.691406 24.214844 C 131.757812 24.191406 131.832031 24.183594 131.902344 24.167969 L 130.988281 23.589844 L 136.742188 49.382812 L 137.320312 48.46875 L 82.570312 60.679688 C 81.964844 60.8125 81.003906 60.824219 80.601562 61.34375 C 80.226562 61.828125 79.980469 62.496094 79.695312 63.035156 L 77.632812 66.855469 L 74.03125 73.535156 C 73.566406 74.398438 74.855469 75.222656 75.316406 74.351562 L 81.890625 62.171875 L 81.410156 62.503906 L 137.660156 49.960938 C 138.0625 49.871094 138.332031 49.449219 138.242188 49.046875 L 132.488281 23.253906 C 132.398438 22.851562 131.976562 22.582031 131.574219 22.671875 L 21.667969 47.183594 C 16.601562 48.3125 11.472656 49.292969 6.449219 50.578125 C 6.382812 50.59375 6.308594 50.609375 6.238281 50.625 C 5.835938 50.714844 5.570312 51.136719 5.660156 51.539062 L 11.414062 77.332031 C 11.503906 77.734375 11.921875 78 12.324219 77.910156 L 68.570312 65.367188 C 69.53125 65.152344 69.199219 63.660156 68.234375 63.875 Z M 68.234375 63.875 " fill-opacity="1" fill-rule="nonzero"/></g></g></g><g fill="#fcfcfc" fill-opacity="1"><g transform="translate(18.05095, 69.0666)"><g><path d="M 12.71875 -1.015625 L 12.5625 -1.703125 L 10.515625 -1.234375 L 10.671875 -0.546875 L 6.65625 0.359375 L 4.890625 -7.421875 L 7.4375 -8 L 6.1875 -13.578125 L 10.84375 -14.625 L 11.234375 -12.84375 L 14.640625 -13.609375 L 14.953125 -12.25 L 11.546875 -11.484375 L 12.09375 -9.046875 L 15.109375 -9.734375 L 16.875 -1.953125 Z M 0.640625 1.71875 L 0.046875 -4.421875 L -2.09375 -13.9375 L 3.8125 -15.265625 L 3.53125 -16.515625 L 8.34375 -17.59375 L 8.625 -16.34375 L 13.953125 -17.546875 L 14.265625 -16.1875 L 2.765625 -13.59375 L 4.625 -5.296875 L 5.28125 0.671875 Z M 11.25 -7.46875 L 9.203125 -7 L 10.203125 -2.5625 L 12.25 -3.03125 Z M 11.25 -7.46875 "/></g></g></g><g fill="#fcfcfc" fill-opacity="1"><g transform="translate(35.392764, 65.153687)"><g><path d="M 12.0625 -0.84375 L 5.953125 -5.90625 L 6.796875 -2.15625 L 9.234375 -2.984375 L 9.53125 -1.625 L 1.109375 1.3125 L 0.609375 -0.015625 L 2.5625 -0.703125 L 1.40625 -5.859375 L -0.734375 -5.390625 L -1.046875 -6.71875 L 1.28125 -7.234375 L -0.515625 -15.21875 L 12.609375 -18.1875 L 12.90625 -16.890625 L 4.140625 -14.90625 L 4.4375 -13.59375 L 12.4375 -15.40625 L 12.734375 -14.09375 L 4.734375 -12.28125 L 5.03125 -10.9375 L 13.03125 -12.75 L 13.328125 -11.4375 L 5.328125 -9.625 L 5.640625 -8.21875 L 15.359375 -10.40625 L 15.671875 -9.078125 L 5.75 -6.84375 L 5.890625 -6.21875 L 10.4375 -7.25 L 12.421875 -5.71875 L 12.53125 -7.71875 L 15.625 -8.421875 L 15.453125 -4.8125 L 14.015625 -4.484375 L 17.234375 -2.015625 Z M 12.0625 -0.84375 "/></g></g></g><g fill="#fcfcfc" fill-opacity="1"><g transform="translate(52.734578, 61.240774)"><g><path d="M 9.75 -0.59375 L 7.59375 -10.140625 L 1.8125 0.328125 L 0.296875 -0.375 L 7.0625 -12.53125 L 7.046875 -12.609375 L -1.4375 -10.6875 L -1.78125 -12.1875 L 6.703125 -14.109375 L 6.109375 -16.71875 L 11.5 -17.9375 L 12.09375 -15.328125 L 14.046875 -15.765625 L 14.390625 -14.265625 L 12.4375 -13.828125 L 15.140625 -1.828125 Z M 9.75 -0.59375 "/></g></g></g><g fill="#fcfcfc" fill-opacity="1"><g transform="translate(69.902971, 57.366991)"><g><path d="M 14.96875 -1.90625 L 9.5 -7.59375 L 6.625 -0.046875 L 0.5625 1.3125 L 7.03125 -15.109375 L -1.3125 -13.21875 L -1.625 -14.65625 L 12.71875 -17.890625 L 12.984375 -16.6875 L 10.140625 -9.265625 L 17.15625 -2.40625 Z M 14.96875 -1.90625 "/></g></g></g><g fill="#fcfcfc" fill-opacity="1"><g transform="translate(87.071369, 53.493207)"><g><path d="M 14.96875 -1.90625 L 9.5 -7.59375 L 6.625 -0.046875 L 0.5625 1.3125 L 7.03125 -15.109375 L -1.3125 -13.21875 L -1.625 -14.65625 L 12.71875 -17.890625 L 12.984375 -16.6875 L 10.140625 -9.265625 L 17.15625 -2.40625 Z M 14.96875 -1.90625 "/></g></g></g><g fill="#fcfcfc" fill-opacity="1"><g transform="translate(104.239767, 49.619422)"><g><path d="M 9.84375 -9.0625 L 7.265625 -0.015625 L 1.265625 1.328125 L 4.3125 -9.171875 L -1.578125 -9.28125 L -1.40625 -10.75 L 4.734375 -10.65625 L 6.5 -16.65625 L 12.390625 -17.984375 L 10.265625 -10.578125 L 15.046875 -10.5 L 14.859375 -8.9375 Z M 9.84375 -9.0625 "/></g></g><g transform="translate(121.234742, 45.784768)"><g><path d="M 3.328125 -5.515625 L 7.109375 -3.09375 L 4.578125 0.90625 L 0.59375 -1.625 L 2.984375 -5.4375 L -2.484375 -13.53125 L 0.8125 -15.78125 L 4.734375 -15.15625 Z M 3.328125 -5.515625 "/></g></g></g><g fill="#ffde59" fill-opacity="1"><g transform="translate(7.193442, 45.16672)"><g><path d="M 4.859375 -0.84375 L 2.4375 -0.3125 L 2.5 -1.4375 L 2.0625 -1.328125 L 1.75 -3.25 L 1.625 -3.21875 L 1.96875 -0.125 L 1.296875 0.03125 L 0.96875 -3.078125 L 0.84375 -3.046875 L 0.875 -0.5 L 0.296875 -0.375 L 0.421875 -3.203125 L 0.953125 -3.3125 L 0.90625 -3.453125 L 0.15625 -3.296875 L 0.1875 -3.5625 L 0.890625 -3.71875 L 0.8125 -4.296875 L 0.15625 -4.09375 L 0.25 -4.625 L 2.078125 -5.234375 L 2.03125 -4.703125 L 1.453125 -4.515625 L 1.546875 -3.859375 L 2.25 -4.015625 L 2.21875 -3.75 L 1.5625 -3.59375 L 1.59375 -3.453125 L 2.046875 -3.5625 L 2.5 -1.4375 L 2.703125 -5.421875 L 3.4375 -5.578125 L 3.171875 -0.765625 L 4.0625 -0.953125 L 3.359375 -3.328125 L 4.0625 -3.46875 Z M 4.859375 -0.84375 "/></g></g></g><g fill="#ffde59" fill-opacity="1"><g transform="translate(12.501111, 44.007563)"><g><path d="M 4.3125 -5.015625 L 3.921875 -4.9375 L 3.875 -5.796875 L 4.28125 -5.890625 Z M 3.703125 -4.890625 L 3.46875 -4.828125 L 3.40625 -5.703125 L 3.65625 -5.765625 Z M 3.546875 -0.609375 L 2 -0.28125 L 2.03125 -0.546875 L 2.75 -0.703125 L 2.46875 -3.984375 L 1.78125 -3.828125 L 1.359375 -0.125 L 0.53125 0.0625 L 0.953125 -3.640625 L 0 -3.4375 L 0.03125 -3.703125 L 1 -3.921875 L 1.125 -5.0625 L 1.953125 -5.234375 L 1.8125 -4.09375 L 3.25 -4.40625 Z M 4.96875 -2.1875 L 4.15625 -2 L 3.40625 -4.625 L 4.15625 -4.78125 Z M 4.96875 -2.1875 "/></g></g></g><g fill="#ffde59" fill-opacity="1"><g transform="translate(17.808781, 42.848407)"><g><path d="M 4.015625 -0.640625 L 2.5625 -0.328125 L 2.484375 -0.578125 L 3.234375 -0.734375 L 3.015625 -2.828125 L 2.09375 -2.640625 L 2.109375 -2.90625 L 2.984375 -3.09375 L 2.921875 -3.796875 L 3.453125 -5.140625 L 2.0625 -4.828125 L 2.0625 -5.078125 L 4.28125 -5.5625 L 4.296875 -5.34375 L 3.671875 -3.890625 L 3.734375 -3.25 L 4.65625 -3.453125 L 4.640625 -3.1875 L 3.765625 -3 Z M 2.84375 -0.859375 L 2.0625 -0.6875 L 1.671875 -0.984375 L 1.375 -0.125 L 0.578125 0.046875 L 1.09375 -1.4375 L 0.265625 -2.078125 L 0.40625 -3.8125 L 0.015625 -3.71875 L 0.0625 -3.96875 L 0.4375 -4.0625 L 0.515625 -4.953125 L 1.203125 -5.109375 L 1.125 -4.203125 L 2.125 -4.421875 L 2.125 -4.203125 L 1.875 -1.59375 Z M 1.265625 -2.046875 L 1.4375 -4.03125 L 1.09375 -3.953125 L 0.953125 -2.28125 Z M 1.265625 -2.046875 "/></g></g></g><g fill="#ffde59" fill-opacity="1"><g transform="translate(23.116451, 41.68925)"><g><path d="M 4.328125 -0.78125 L 1.015625 -0.0625 L 0.875 -1.84375 L 3.046875 -2.3125 L 2.5 -3.078125 L 0.171875 -2.578125 L 0.1875 -2.859375 L 2.34375 -3.328125 L 1.8125 -4.078125 L 0.046875 -3.6875 L 0.078125 -3.9375 L 1.65625 -4.296875 L 1.125 -5.046875 L 2 -5.234375 L 2.546875 -4.484375 L 4.390625 -4.890625 L 4.375 -4.640625 L 2.703125 -4.265625 L 3.21875 -3.515625 L 4.5 -3.796875 L 4.484375 -3.515625 L 3.390625 -3.28125 L 3.953125 -2.515625 L 3.921875 -2.25 L 1.703125 -1.765625 L 1.8125 -0.515625 L 4.34375 -1.0625 Z M 4.328125 -0.78125 "/></g></g></g><g fill="#ffde59" fill-opacity="1"><g transform="translate(28.424121, 40.530094)"><g><path d="M 4.328125 -4.71875 L 1.515625 -4.109375 L 1.3125 -1.0625 L 1.796875 -1.171875 L 1.765625 -0.890625 L 0.5 -0.625 L 0.734375 -3.9375 L 0.046875 -3.796875 L 0.0625 -4.046875 L 0.75 -4.1875 L 0.796875 -4.984375 L 1.578125 -5.15625 L 1.515625 -4.359375 L 4.34375 -4.984375 Z M 3.5 -0.875 L 3.328125 -2.34375 L 2.890625 -2.25 L 3.015625 -0.765625 Z M 4.296875 -0.78125 L 2.265625 -0.328125 L 2.09375 -2.328125 L 3.3125 -2.59375 L 3.21875 -3.5 L 1.859375 -3.203125 L 1.890625 -3.484375 L 4.578125 -4.078125 L 4.5625 -3.796875 L 4 -3.671875 L 4.09375 -2.765625 L 4.828125 -2.921875 L 4.796875 -2.671875 L 4.109375 -2.515625 Z M 4.296875 -0.78125 "/></g></g></g><g fill="#ffde59" fill-opacity="1"><g transform="translate(33.73179, 39.370937)"><g><path d="M 4.28125 -4.796875 L 3.875 -4.71875 L 3.84375 -5.625 L 4.25 -5.703125 Z M 3.671875 -4.671875 L 3.4375 -4.609375 L 3.390625 -5.515625 L 3.640625 -5.578125 Z M 2.703125 -3.515625 L 1.5625 -3.265625 L 0.34375 -4.421875 L 1.296875 -4.640625 L 2.25 -3.671875 L 2.71875 -3.765625 Z M 2.640625 -2.109375 L 1.484375 -1.84375 L 0.28125 -3.015625 L 1.21875 -3.234375 L 2.171875 -2.265625 L 2.625 -2.359375 Z M 3.375 -0.59375 L 1.390625 -0.15625 L 1.421875 -0.4375 L 2.53125 -0.6875 L 3.28125 -2.359375 L 3.46875 -4.375 L 4.296875 -4.5625 L 4.109375 -2.359375 Z M 3.375 -0.59375 "/></g></g></g><g fill="#ffde59" fill-opacity="1"><g transform="translate(39.039459, 38.211781)"><g><path d="M 4.109375 -2 L 2.8125 -1.71875 L 2.828125 -1.984375 L 3.421875 -2.109375 L 3.40625 -3.375 L 2.125 -3.015625 L 3.0625 -0.359375 L 2.359375 -0.21875 L 1.421875 -2.828125 L 0.578125 -2.59375 L 0.59375 -2.859375 L 1.34375 -3.078125 L 1.046875 -3.90625 L 1.75 -4.0625 L 2.03125 -3.265625 L 4.09375 -3.828125 Z M 4.109375 -2 "/></g></g></g><g fill="#ffde59" fill-opacity="1"><g transform="translate(44.347128, 37.052625)"><g><path d="M 3.375 -0.59375 L 1.390625 -0.15625 L 1.421875 -0.4375 L 2.53125 -0.6875 L 3.28125 -2.359375 L 3.453125 -4.78125 L 4.3125 -4.96875 L 4.109375 -2.359375 Z M 2.375 -2.703125 L 0.328125 -3.328125 L 0.34375 -4.21875 L 2.375 -3.59375 Z M 2.375 -2.703125 "/></g></g></g><g fill="#ffde59" fill-opacity="1"><g transform="translate(49.654799, 35.893468)"><g><path d="M 1.375 -0.09375 L 0.515625 0.09375 L 0.765625 -4.03125 L 1.890625 -4.28125 L 1.875 -4.03125 L 1.5625 -3.953125 Z M 4.25 -0.78125 L 2.4375 -0.390625 L 2.15625 -4.890625 L 2.953125 -5.0625 L 3.21875 -0.828125 L 3.5 -0.890625 L 4 -2.953125 L 4.8125 -3.125 Z M 4.25 -0.78125 "/></g></g></g><g fill="#ffde59" fill-opacity="1"><g transform="translate(54.962471, 34.734311)"><g><path d="M 3.015625 -2.3125 L 1.875 -2.0625 L 1.75 -3.25 L 2.921875 -3.5 Z M 3.015625 -2.3125 "/></g></g></g><g fill="#ffde59" fill-opacity="1"><g transform="translate(60.270142, 33.575154)"><g><path d="M 3.015625 -0.4375 L 2.015625 -0.234375 L 3.40625 -4.5625 L 0.109375 -3.84375 L 0.109375 -4.09375 L 4.40625 -5.03125 Z M 4.390625 -5.234375 L 3.984375 -5.140625 L 3.921875 -6.015625 L 4.34375 -6.109375 Z M 3.78125 -5.09375 L 3.53125 -5.046875 L 3.484375 -5.921875 L 3.734375 -5.96875 Z M 3.78125 -5.09375 "/></g></g></g><g fill="#ffde59" fill-opacity="1"><g transform="translate(65.577813, 32.415997)"><g><path d="M 1.375 -0.09375 L 0.515625 0.09375 L 0.765625 -4.03125 L 1.890625 -4.28125 L 1.875 -4.03125 L 1.5625 -3.953125 Z M 4.25 -0.78125 L 2.4375 -0.390625 L 2.15625 -4.890625 L 2.953125 -5.0625 L 3.21875 -0.828125 L 3.5 -0.890625 L 4 -2.953125 L 4.8125 -3.125 Z M 4.25 -0.78125 "/></g></g></g><g fill="#ffde59" fill-opacity="1"><g transform="translate(70.885484, 31.25684)"><g><path d="M 4.53125 -3.109375 L 0.21875 -2.15625 L 0.21875 -2.453125 L 4.5625 -3.40625 Z M 4.53125 -3.109375 "/></g></g></g><g fill="#ffde59" fill-opacity="1"><g transform="translate(76.193156, 30.097683)"><g><path d="M 4.953125 -0.9375 L 4 -0.71875 L 2.8125 -2.296875 L 1.78125 -0.25 L 0.5 0.03125 L 0.53125 -0.25 L 0.9375 -0.328125 L 2.953125 -4.421875 L 0.328125 -3.859375 L 0.34375 -4.109375 L 4.015625 -4.90625 L 4 -4.65625 L 2.890625 -2.453125 L 3.53125 -2.59375 Z M 4.953125 -0.9375 "/></g></g></g><g fill="#ffde59" fill-opacity="1"><g transform="translate(81.500823, 28.938528)"><g><path d="M 4.71875 -0.875 L 1.8125 -0.234375 L 1.65625 -1.3125 L 2 -2.484375 L 3.0625 -2.71875 L 3.015625 -3.453125 L 1.71875 -3.171875 L 1.296875 -1.46875 L 0.46875 -1.28125 L 1.140625 -4.03125 L 0.046875 -3.796875 L 0.0625 -4.046875 L 1.203125 -4.296875 L 1.390625 -5.109375 L 2.234375 -5.296875 L 2.03125 -4.46875 L 4.359375 -4.984375 L 4.34375 -4.734375 L 1.96875 -4.203125 L 1.765625 -3.4375 L 3.703125 -3.859375 L 3.8125 -2.875 L 4.734375 -3.078125 L 4.703125 -2.796875 L 3.828125 -2.609375 L 3.921875 -1.53125 L 3.140625 -1.359375 L 3.078125 -2.4375 L 2.71875 -2.359375 L 2.484375 -1.46875 L 2.59375 -0.65625 L 4.765625 -1.140625 Z M 4.71875 -0.875 "/></g></g></g><g fill="#ffde59" fill-opacity="1"><g transform="translate(86.808494, 27.779371)"><g><path d="M 3.734375 -0.609375 L 2.90625 -0.421875 L 2.546875 -3.15625 L 2.4375 -3.140625 L 1.25 -0.296875 L 0.25 -0.078125 L 1.640625 -3.21875 L 2.53125 -3.421875 L 2.453125 -3.875 L 0.078125 -3.359375 L 0.109375 -3.625 L 2.4375 -4.140625 L 2.3125 -5.171875 L 3.125 -5.34375 L 3.265625 -4.3125 L 4.421875 -4.5625 L 4.390625 -4.296875 L 3.28125 -4.0625 Z M 3.734375 -0.609375 "/></g></g></g><g fill="#ffde59" fill-opacity="1"><g transform="translate(92.116165, 26.620214)"><g><path d="M 4.953125 -0.9375 L 4 -0.71875 L 2.8125 -2.296875 L 1.78125 -0.25 L 0.5 0.03125 L 0.53125 -0.25 L 0.9375 -0.328125 L 2.953125 -4.421875 L 0.328125 -3.859375 L 0.34375 -4.109375 L 4.015625 -4.90625 L 4 -4.65625 L 2.890625 -2.453125 L 3.53125 -2.59375 Z M 4.953125 -0.9375 "/></g></g></g><g fill="#ffde59" fill-opacity="1"><g transform="translate(97.423837, 25.461057)"><g><path d="M 4.953125 -0.9375 L 4 -0.71875 L 2.8125 -2.296875 L 1.78125 -0.25 L 0.5 0.03125 L 0.53125 -0.25 L 0.9375 -0.328125 L 2.953125 -4.421875 L 0.328125 -3.859375 L 0.34375 -4.109375 L 4.015625 -4.90625 L 4 -4.65625 L 2.890625 -2.453125 L 3.53125 -2.59375 Z M 4.953125 -0.9375 "/></g></g></g><g fill="#ffde59" fill-opacity="1"><g transform="translate(102.731508, 24.3019)"><g><path d="M 4.515625 -2.390625 L 2.9375 -2.625 L 2.15625 -0.328125 L 0.796875 -0.03125 L 0.8125 -0.3125 L 1.328125 -0.421875 L 2.09375 -2.75 L 0.546875 -3 L 0.640625 -3.234375 L 2.203125 -2.984375 L 2.828125 -4.9375 L 3.78125 -5.15625 L 3.015625 -2.859375 L 4.609375 -2.625 Z M 4.515625 -2.390625 "/></g></g></g><g fill="#ffde59" fill-opacity="1"><g transform="translate(108.039179, 23.142743)"><g><path d="M 4.28125 -0.765625 L 1.625 -0.1875 L 0.90625 -1.578125 L 0.765625 -4.78125 L 1.59375 -4.96875 L 1.734375 -1.765625 L 2.296875 -0.609375 L 3.515625 -0.875 L 3.875 -2.71875 L 4.71875 -2.890625 Z M 4.28125 -0.765625 "/></g></g></g><g fill="#ffde59" fill-opacity="1"><g transform="translate(113.34685, 21.983587)"><g><path d="M 2.578125 -0.671875 L 2.421875 -1.859375 L 1.640625 -1.6875 L 1.78125 -0.5 Z M 4.671875 -2.34375 L 3.1875 -2.015625 L 3.375 -0.578125 L 1.03125 -0.0625 L 0.84375 -1.765625 L 2.390625 -2.109375 L 2.265625 -3.015625 L 0.328125 -2.59375 L 0.359375 -2.859375 L 2.234375 -3.265625 L 2.109375 -4.171875 L 0.265625 -3.78125 L 0.296875 -4.03125 L 2.09375 -4.421875 L 2 -5.171875 L 2.765625 -5.328125 L 2.859375 -4.59375 L 4.28125 -4.890625 L 4.25 -4.640625 L 2.875 -4.34375 L 3.015625 -3.4375 L 4.484375 -3.765625 L 4.46875 -3.5 L 3.046875 -3.1875 L 3.171875 -2.28125 L 4.671875 -2.609375 Z M 4.671875 -2.34375 "/></g></g></g><g fill="#ffde59" fill-opacity="1"><g transform="translate(118.654522, 20.82443)"><g><path d="M 2.609375 -2.0625 L 2.421875 -3.28125 L 1.734375 -3.125 L 1.890625 -1.90625 Z M 2.84375 -0.265625 L 1.890625 -0.046875 L 2.609375 -1.78125 L 1.15625 -1.46875 L 0.9375 -3.234375 L 2.40625 -3.546875 L 2.296875 -4.21875 L -0.0625 -3.703125 L -0.03125 -3.953125 L 2.265625 -4.453125 L 2.171875 -5.296875 L 2.953125 -5.46875 L 3.0625 -4.625 L 4.515625 -4.953125 L 4.5 -4.703125 L 3.078125 -4.390625 L 3.40625 -1.90625 Z M 2.84375 -0.265625 "/></g></g></g><g fill="#ffde59" fill-opacity="1"><g transform="translate(123.962193, 19.665273)"><g><path d="M 2.765625 -1.90625 L 2.09375 -1.765625 L 1.609375 -5.03125 L 2.65625 -5.265625 Z M 3.078125 -0.46875 L 2.109375 -0.265625 L 2.015625 -1.296875 L 2.984375 -1.5 Z M 3.078125 -0.46875 "/></g></g></g><g fill="#ffffff" fill-opacity="1"><g transform="translate(18.903574, 101.435678)"><g><path d="M 15.15625 -16.828125 L 13.96875 -21.84375 L 15.46875 -22.203125 L 16.65625 -17.1875 Z M 12.828125 -16.28125 L 11.640625 -21.296875 L 13.140625 -21.65625 L 14.328125 -16.640625 Z M 3.6875 1.078125 L 1.40625 0.375 L 11.21875 -7.140625 L 8.671875 -17.859375 L -2.9375 -15.09375 L -3.34375 -16.828125 L 10.96875 -20.234375 L 12.140625 -15.28125 L 16.015625 -16.1875 L 17.640625 -9.328125 Z M 3.6875 1.078125 "/></g></g></g><g fill="#ffffff" fill-opacity="1"><g transform="translate(38.779528, 96.721807)"><g><path d="M 11.125 -0.515625 L 6.671875 -19.421875 L 12.828125 -20.875 L 16.046875 -7.28125 L 18.53125 -9.515625 L 19.015625 -7.515625 Z M 2.25 1.59375 L 0.515625 0.890625 L 2.796875 -1.96875 L -0.90625 -17.625 L 5 -19.03125 L 8.15625 -5.71875 Z M 2.25 1.59375 "/></g></g></g><g fill="#ffffff" fill-opacity="1"><g transform="translate(58.858296, 91.959836)"><g><path d="M -0.65625 -7.078125 L -1.03125 -8.6875 L 15.265625 -12.546875 L 15.640625 -10.9375 Z M -0.65625 -7.078125 "/></g></g></g><g fill="#ffffff" fill-opacity="1"><g transform="translate(77.111724, 87.630771)"><g><path d="M 17.53125 -2.421875 L 11.03125 -9.015625 L 7.765625 -0.15625 L 0.65625 1.53125 L 8.046875 -17.796875 L -1.6875 -15.484375 L -2.09375 -17.140625 L 14.671875 -21.125 L 15.015625 -19.734375 L 11.765625 -11 L 20.078125 -3.046875 Z M 17.53125 -2.421875 "/></g></g></g><g fill="#ffffff" fill-opacity="1"><g transform="translate(97.190494, 82.868799)"><g><path d="M 12.28125 -9.8125 L 11.328125 -10.625 L 5.484375 -9.234375 L 5.0625 -8.09375 L -0.65625 -6.75 L 0.28125 -8.90625 L -1.96875 -11.65625 L 0.453125 -12.234375 L 1.296875 -11.234375 L 1.609375 -11.984375 L 0.671875 -13.09375 L -2.359375 -12.375 L 0.015625 -18.140625 L 5.515625 -19.453125 L 5 -18.171875 L 7.90625 -18.859375 L 10.9375 -16.59375 L 11.15625 -18.625 L 9.53125 -18.234375 L 9.171875 -19.796875 L 15.25 -21.234375 L 15.578125 -19.859375 L 14.984375 -13.578125 L 18.171875 -11.203125 Z M 15.046875 -2.09375 L 12.9375 -6.59375 L 17.53125 -7.6875 L 19.8125 -3.234375 Z M 7.53125 0.390625 L 5.71875 -2.890625 L 5.796875 0.09375 L 1.140625 1.203125 L 1.203125 -3.8125 L 5.6875 -4.875 L 5.71875 -3.234375 L 7.046875 -3.546875 L 6.484375 -5.890625 L 0.109375 -4.390625 L -0.25 -5.921875 L 17.84375 -10.203125 L 18.203125 -8.671875 L 12.15625 -7.234375 L 13.625 -1.046875 Z M 7.234375 -14.046875 L 6.109375 -11 L 9.828125 -11.890625 Z M 3.46875 -16.234375 L 2.546875 -16.015625 L 1.859375 -14.390625 L 2.34375 -14.5 L 2.59375 -14.21875 Z M 3.46875 -16.234375 "/></g></g></g><g fill="#ffffff" fill-opacity="1"><g transform="translate(117.472081, 78.058727)"><g><path d="M 5.234375 0.84375 L 2.875 0.15625 L 12.34375 -6.25 L 7.96875 -17.34375 L 3.34375 -15.421875 L 5.515625 -6.25 L -0.015625 -4.9375 L -2.90625 -17.15625 L 2.625 -18.46875 L 2.9375 -17.109375 L 12.875 -21.15625 L 18.15625 -8.03125 Z M 5.234375 0.84375 "/></g></g></g><g fill="#fcfcfc" fill-opacity="1"><g transform="translate(53.661509, 132.561545)"><g><path d="M -1.96875 -11.03125 L 1.03125 -11.703125 C 1.820312 -11.878906 2.457031 -11.796875 2.9375 -11.453125 C 3.425781 -11.109375 3.769531 -10.507812 3.96875 -9.65625 L 5.15625 -4.546875 C 5.40625 -3.472656 5.394531 -2.625 5.125 -2 C 4.863281 -1.375 4.296875 -0.960938 3.421875 -0.765625 L 0.484375 -0.109375 Z M 2.625 -2.625 C 3.019531 -2.707031 3.175781 -2.941406 3.09375 -3.328125 L 1.828125 -8.953125 C 1.773438 -9.191406 1.710938 -9.367188 1.640625 -9.484375 C 1.578125 -9.609375 1.488281 -9.679688 1.375 -9.703125 C 1.269531 -9.722656 1.113281 -9.710938 0.90625 -9.671875 L 0.671875 -9.609375 L 2.25 -2.53125 Z M 2.625 -2.625 "/></g></g></g><g fill="#fcfcfc" fill-opacity="1"><g transform="translate(59.923024, 131.158179)"><g><path d="M 0.1875 -0.046875 L -1.203125 -11.203125 L 2.484375 -12.03125 L 5.984375 -1.34375 L 3.921875 -0.875 L 3.375 -2.609375 L 2.046875 -2.3125 L 2.3125 -0.515625 Z M 1.828125 -4.078125 L 2.8125 -4.3125 L 1.078125 -9.765625 L 0.96875 -9.734375 Z M 1.828125 -4.078125 "/></g></g></g><g fill="#fcfcfc" fill-opacity="1"><g transform="translate(66.082933, 129.777586)"><g><path d="M 0.375 -0.078125 L -2.078125 -11 L 0.03125 -11.484375 L 2.484375 -0.5625 Z M 0.375 -0.078125 "/></g></g></g><g fill="#fcfcfc" fill-opacity="1"><g transform="translate(68.966023, 129.131411)"><g><path d="M 0.484375 -0.109375 L -1.96875 -11.03125 L 2.390625 -12.015625 L 2.875 -9.890625 L 0.734375 -9.40625 L 1.203125 -7.28125 L 3.25 -7.734375 L 3.71875 -5.6875 L 1.671875 -5.234375 L 2.234375 -2.734375 L 4.515625 -3.25 L 4.984375 -1.125 Z M 0.484375 -0.109375 "/></g></g></g><g fill="#fcfcfc" fill-opacity="1"><g transform="translate(74.198771, 127.958619)"><g><path d="M 0.375 -0.078125 L -2.078125 -11 L 0.03125 -11.484375 L 2.484375 -0.5625 Z M 0.375 -0.078125 "/></g></g></g><g fill="#fcfcfc" fill-opacity="1"><g transform="translate(77.081861, 127.312444)"><g/></g></g><g fill="#fcfcfc" fill-opacity="1"><g transform="translate(80.053859, 126.646343)"><g><path d="M -1.96875 -11.03125 L 1.390625 -11.78125 C 1.921875 -11.894531 2.359375 -11.863281 2.703125 -11.6875 C 3.054688 -11.507812 3.332031 -11.210938 3.53125 -10.796875 C 3.738281 -10.390625 3.914062 -9.851562 4.0625 -9.1875 C 4.195312 -8.5625 4.222656 -8.054688 4.140625 -7.671875 C 4.054688 -7.296875 3.828125 -6.988281 3.453125 -6.75 C 3.804688 -6.757812 4.082031 -6.644531 4.28125 -6.40625 C 4.488281 -6.175781 4.644531 -5.835938 4.75 -5.390625 L 5.65625 -1.265625 L 3.515625 -0.796875 L 2.5625 -5.0625 C 2.488281 -5.363281 2.378906 -5.539062 2.234375 -5.59375 C 2.097656 -5.65625 1.878906 -5.65625 1.578125 -5.59375 L 2.703125 -0.609375 L 0.484375 -0.109375 Z M 1.6875 -7.59375 C 1.988281 -7.664062 2.066406 -8.035156 1.921875 -8.703125 C 1.859375 -8.984375 1.796875 -9.191406 1.734375 -9.328125 C 1.679688 -9.460938 1.613281 -9.550781 1.53125 -9.59375 C 1.457031 -9.632812 1.359375 -9.640625 1.234375 -9.609375 L 0.71875 -9.5 L 1.15625 -7.484375 Z M 1.6875 -7.59375 "/></g></g></g><g fill="#fcfcfc" fill-opacity="1"><g transform="translate(86.112161, 125.288522)"><g><path d="M 0.484375 -0.109375 L -1.96875 -11.03125 L 2.390625 -12.015625 L 2.875 -9.890625 L 0.734375 -9.40625 L 1.203125 -7.28125 L 3.25 -7.734375 L 3.71875 -5.6875 L 1.671875 -5.234375 L 2.234375 -2.734375 L 4.515625 -3.25 L 4.984375 -1.125 Z M 0.484375 -0.109375 "/></g></g></g><g fill="#fcfcfc" fill-opacity="1"><g transform="translate(91.344909, 124.11573)"><g><path d="M 3.046875 -0.5625 C 2.253906 -0.382812 1.5625 -0.492188 0.96875 -0.890625 C 0.375 -1.296875 -0.0195312 -1.929688 -0.21875 -2.796875 L -1.34375 -7.828125 C -1.582031 -8.910156 -1.546875 -9.773438 -1.234375 -10.421875 C -0.929688 -11.066406 -0.316406 -11.492188 0.609375 -11.703125 C 1.410156 -11.878906 2.101562 -11.800781 2.6875 -11.46875 C 3.28125 -11.144531 3.671875 -10.566406 3.859375 -9.734375 L 4.28125 -7.859375 L 2.109375 -7.375 L 1.75 -8.96875 C 1.675781 -9.28125 1.585938 -9.488281 1.484375 -9.59375 C 1.390625 -9.707031 1.25 -9.742188 1.0625 -9.703125 C 0.863281 -9.660156 0.742188 -9.5625 0.703125 -9.40625 C 0.660156 -9.25 0.664062 -9.039062 0.71875 -8.78125 L 1.953125 -3.3125 C 2.015625 -3.019531 2.101562 -2.816406 2.21875 -2.703125 C 2.34375 -2.585938 2.488281 -2.550781 2.65625 -2.59375 C 2.988281 -2.664062 3.09375 -2.976562 2.96875 -3.53125 L 2.53125 -5.5 L 4.734375 -6 L 5.1875 -3.9375 C 5.601562 -2.101562 4.890625 -0.976562 3.046875 -0.5625 Z M 3.046875 -0.5625 "/></g></g></g><g fill="#fcfcfc" fill-opacity="1"><g transform="translate(97.36511, 122.766448)"><g><path d="M 3.109375 -0.578125 C 2.234375 -0.378906 1.503906 -0.5 0.921875 -0.9375 C 0.335938 -1.382812 -0.0625 -2.09375 -0.28125 -3.0625 L -1.4375 -8.265625 C -1.644531 -9.203125 -1.570312 -9.957031 -1.21875 -10.53125 C -0.875 -11.113281 -0.265625 -11.503906 0.609375 -11.703125 C 1.492188 -11.898438 2.21875 -11.8125 2.78125 -11.4375 C 3.351562 -11.0625 3.742188 -10.40625 3.953125 -9.46875 L 5.109375 -4.265625 C 5.335938 -3.285156 5.28125 -2.472656 4.9375 -1.828125 C 4.601562 -1.191406 3.992188 -0.773438 3.109375 -0.578125 Z M 2.65625 -2.59375 C 2.863281 -2.644531 2.976562 -2.757812 3 -2.9375 C 3.019531 -3.113281 3 -3.351562 2.9375 -3.65625 L 1.734375 -9 C 1.679688 -9.226562 1.609375 -9.414062 1.515625 -9.5625 C 1.421875 -9.707031 1.273438 -9.753906 1.078125 -9.703125 C 0.710938 -9.628906 0.59375 -9.3125 0.71875 -8.75 L 1.90625 -3.421875 C 1.976562 -3.117188 2.070312 -2.894531 2.1875 -2.75 C 2.300781 -2.601562 2.457031 -2.550781 2.65625 -2.59375 Z M 2.65625 -2.59375 "/></g></g></g><g fill="#fcfcfc" fill-opacity="1"><g transform="translate(103.53772, 121.383008)"><g><path d="M -1.96875 -11.03125 L 1.390625 -11.78125 C 1.921875 -11.894531 2.359375 -11.863281 2.703125 -11.6875 C 3.054688 -11.507812 3.332031 -11.210938 3.53125 -10.796875 C 3.738281 -10.390625 3.914062 -9.851562 4.0625 -9.1875 C 4.195312 -8.5625 4.222656 -8.054688 4.140625 -7.671875 C 4.054688 -7.296875 3.828125 -6.988281 3.453125 -6.75 C 3.804688 -6.757812 4.082031 -6.644531 4.28125 -6.40625 C 4.488281 -6.175781 4.644531 -5.835938 4.75 -5.390625 L 5.65625 -1.265625 L 3.515625 -0.796875 L 2.5625 -5.0625 C 2.488281 -5.363281 2.378906 -5.539062 2.234375 -5.59375 C 2.097656 -5.65625 1.878906 -5.65625 1.578125 -5.59375 L 2.703125 -0.609375 L 0.484375 -0.109375 Z M 1.6875 -7.59375 C 1.988281 -7.664062 2.066406 -8.035156 1.921875 -8.703125 C 1.859375 -8.984375 1.796875 -9.191406 1.734375 -9.328125 C 1.679688 -9.460938 1.613281 -9.550781 1.53125 -9.59375 C 1.457031 -9.632812 1.359375 -9.640625 1.234375 -9.609375 L 0.71875 -9.5 L 1.15625 -7.484375 Z M 1.6875 -7.59375 "/></g></g></g><g fill="#fcfcfc" fill-opacity="1"><g transform="translate(109.596023, 120.025187)"><g><path d="M -1.96875 -11.03125 L 1.03125 -11.703125 C 1.820312 -11.878906 2.457031 -11.796875 2.9375 -11.453125 C 3.425781 -11.109375 3.769531 -10.507812 3.96875 -9.65625 L 5.15625 -4.546875 C 5.40625 -3.472656 5.394531 -2.625 5.125 -2 C 4.863281 -1.375 4.296875 -0.960938 3.421875 -0.765625 L 0.484375 -0.109375 Z M 2.625 -2.625 C 3.019531 -2.707031 3.175781 -2.941406 3.09375 -3.328125 L 1.828125 -8.953125 C 1.773438 -9.191406 1.710938 -9.367188 1.640625 -9.484375 C 1.578125 -9.609375 1.488281 -9.679688 1.375 -9.703125 C 1.269531 -9.722656 1.113281 -9.710938 0.90625 -9.671875 L 0.671875 -9.609375 L 2.25 -2.53125 Z M 2.625 -2.625 "/></g></g></g></svg>