<svg xmlns="http://www.w3.org/2000/svg" xmlns:xlink="http://www.w3.org/1999/xlink" width="800" zoomAndPan="magnify" viewBox="0 0 600 398.999991" height="532" preserveAspectRatio="xMidYMid meet" version="1.0"><defs><g/></defs><rect x="-60" width="720" fill="#ffffff" y="-39.899999" height="478.799989" fill-opacity="1"/><rect x="-60" width="720" fill="#ffffff" y="-39.899999" height="478.799989" fill-opacity="1"/><g fill="#9b5050" fill-opacity="1"><g transform="translate(69.472757, 238.816492)"><g><path d="M 27.261719 0 L 27.261719 -31.234375 L 56.78125 -31.234375 L 56.78125 -48.730469 L 27.261719 -48.730469 L 27.261719 -63.542969 L 60.75 -63.542969 L 60.75 -80.929688 L 8.050781 -80.929688 L 8.050781 0 Z M 27.261719 0 "/></g></g></g><g fill="#9b5050" fill-opacity="1"><g transform="translate(143.844367, 238.816492)"><g><path d="M 50.125 -27.585938 C 50.125 -19.964844 44.328125 -16.742188 38.746094 -16.742188 C 33.488281 -16.742188 27.261719 -20.070312 27.261719 -27.585938 L 27.261719 -80.929688 L 8.050781 -80.929688 L 8.050781 -24.472656 C 8.050781 -7.296875 19.855469 2.253906 38.960938 2.253906 C 57.421875 2.253906 69.660156 -7.085938 69.660156 -24.472656 L 69.660156 -80.929688 L 50.125 -80.929688 Z M 50.125 -27.585938 "/></g></g></g><g fill="#9b5050" fill-opacity="1"><g transform="translate(231.308423, 238.816492)"><g><path d="M 35.742188 -15.777344 C 30.804688 -15.886719 26.402344 -19.855469 25.332031 -25.652344 L 3.972656 -25.652344 C 5.6875 -6.011719 17.496094 2.253906 34.882812 2.253906 C 56.027344 2.253906 66.441406 -6.546875 66.441406 -22.324219 C 66.441406 -35.207031 60.535156 -44.542969 44.652344 -49.160156 L 33.167969 -52.378906 C 28.550781 -53.773438 26.726562 -56.457031 26.726562 -60.105469 C 26.726562 -63.433594 29.300781 -66.226562 34.5625 -66.226562 C 40.359375 -66.226562 44.113281 -63.433594 45.082031 -57.53125 L 65.152344 -57.53125 C 62.898438 -74.703125 53.453125 -83.183594 35.097656 -83.183594 C 17.171875 -83.183594 5.902344 -73.417969 5.902344 -59.570312 C 5.902344 -47.550781 10.625 -39.390625 24.042969 -35.3125 L 36.707031 -31.449219 C 42.71875 -29.625 44.757812 -27.046875 44.757812 -21.894531 C 44.757812 -18.355469 41.644531 -15.777344 36.0625 -15.777344 Z M 35.742188 -15.777344 "/></g></g></g><g fill="#9b5050" fill-opacity="1"><g transform="translate(312.333572, 238.816492)"><g><path d="M 28.980469 0 L 28.980469 -80.929688 L 9.125 -80.929688 L 9.125 0 Z M 28.980469 0 "/></g></g></g><g fill="#9b5050" fill-opacity="1"><g transform="translate(360.198372, 238.816492)"><g><path d="M 41.539062 2.253906 C 65.902344 2.253906 78.460938 -19.105469 78.460938 -40.679688 C 78.460938 -61.503906 65.902344 -83.183594 41.539062 -83.183594 C 17.171875 -83.183594 4.402344 -61.71875 4.402344 -40.679688 C 4.402344 -19.105469 17.171875 2.253906 41.539062 2.253906 Z M 41.539062 -16.421875 C 32.199219 -16.421875 25.332031 -25.117188 25.332031 -40.679688 C 25.332031 -56.242188 33.167969 -64.398438 41.539062 -64.398438 C 50.875 -64.398438 57.421875 -56.242188 57.421875 -40.679688 C 57.421875 -25.117188 50.230469 -16.421875 41.539062 -16.421875 Z M 41.539062 -16.421875 "/></g></g></g><g fill="#9b5050" fill-opacity="1"><g transform="translate(452.813534, 238.816492)"><g><path d="M 69.660156 0 L 69.660156 -80.929688 L 51.089844 -80.929688 L 51.089844 -52.59375 C 51.089844 -46.046875 51.84375 -32.523438 52.808594 -24.902344 L 52.164062 -24.902344 C 51.414062 -29.625 49.589844 -36.277344 48.40625 -39.070312 L 31.125 -80.929688 L 8.050781 -80.929688 L 8.050781 0 L 26.617188 0 L 26.617188 -28.121094 C 26.617188 -38.101562 25.761719 -52.378906 25.4375 -57.851562 L 26.082031 -57.851562 C 26.511719 -54.632812 27.691406 -47.226562 28.871094 -44.113281 L 45.9375 0 Z M 69.660156 0 "/></g></g></g><path stroke-linecap="butt" transform="matrix(0.748817, 0, 0, 0.75, 195.959994, 263.075434)" fill="none" stroke-linejoin="miter" d="M 0.00125974 1.99838 L 277.438794 1.99838 " stroke="#9b5050" stroke-width="4" stroke-opacity="1" stroke-miterlimit="4"/></svg>