<svg xmlns="http://www.w3.org/2000/svg" xmlns:xlink="http://www.w3.org/1999/xlink" width="800" zoomAndPan="magnify" viewBox="0 0 600 398.999991" height="532" preserveAspectRatio="xMidYMid meet" version="1.0"><defs><g/></defs><rect x="-60" width="720" fill="#ffffff" y="-39.899999" height="478.799989" fill-opacity="1"/><rect x="-60" width="720" fill="#ffffff" y="-39.899999" height="478.799989" fill-opacity="1"/><rect x="-60" width="720" fill="#ffffff" y="-39.899999" height="478.799989" fill-opacity="1"/><g fill="#9b5050" fill-opacity="1"><g transform="translate(157.426266, 238.816391)"><g><path d="M 24.257812 -24.148438 C 24.257812 -18.675781 20.609375 -16.742188 15.242188 -16.742188 C 11.269531 -16.742188 6.117188 -17.386719 0.75 -19.535156 L 0.75 -0.75 C 5.796875 1.074219 12.878906 2.253906 19.75 2.253906 C 35.957031 2.253906 43.46875 -4.402344 43.46875 -18.246094 L 43.46875 -80.929688 L 24.257812 -80.929688 Z M 24.257812 -24.148438 "/></g></g></g><g fill="#9b5050" fill-opacity="1"><g transform="translate(218.705453, 238.816391)"><g><path d="M 77.496094 0 L 48.300781 -80.929688 L 28.015625 -80.929688 L 0 0 L 21.679688 0 L 26.832031 -16.636719 L 50.230469 -16.636719 L 55.277344 0 Z M 31.664062 -33.378906 C 31.664062 -33.378906 37.136719 -48.40625 38.425781 -59.355469 L 38.960938 -59.355469 C 40.464844 -48.40625 45.507812 -33.378906 45.507812 -33.378906 Z M 31.664062 -33.378906 "/></g></g></g><g fill="#9b5050" fill-opacity="1"><g transform="translate(305.525609, 238.816391)"><g><path d="M 61.074219 0 L 61.074219 -17.925781 L 26.941406 -17.925781 L 60.105469 -66.761719 L 60.105469 -80.929688 L 4.507812 -80.929688 L 4.507812 -63.542969 L 35.207031 -63.542969 L 2.253906 -15.671875 L 2.253906 0 Z M 61.074219 0 "/></g></g></g><g fill="#9b5050" fill-opacity="1"><g transform="translate(378.931392, 238.816391)"><g><path d="M 61.074219 0 L 61.074219 -17.925781 L 26.941406 -17.925781 L 60.105469 -66.761719 L 60.105469 -80.929688 L 4.507812 -80.929688 L 4.507812 -63.542969 L 35.207031 -63.542969 L 2.253906 -15.671875 L 2.253906 0 Z M 61.074219 0 "/></g></g></g><path stroke-linecap="butt" transform="matrix(0.748817, 0, 0, 0.75, 195.959994, 263.075402)" fill="none" stroke-linejoin="miter" d="M 0.00125974 1.998422 L 277.438794 1.998422 " stroke="#9b5050" stroke-width="4" stroke-opacity="1" stroke-miterlimit="4"/></svg>