<svg xmlns="http://www.w3.org/2000/svg" xmlns:xlink="http://www.w3.org/1999/xlink" width="800" zoomAndPan="magnify" viewBox="0 0 600 398.999991" height="532" preserveAspectRatio="xMidYMid meet" version="1.0"><defs><g/></defs><rect x="-60" width="720" fill="#ffffff" y="-39.899999" height="478.799989" fill-opacity="1"/><rect x="-60" width="720" fill="#ffffff" y="-39.899999" height="478.799989" fill-opacity="1"/><g fill="#9b5050" fill-opacity="1"><g transform="translate(174.012868, 238.816463)"><g><path d="M 77.496094 0 L 48.300781 -80.929688 L 28.015625 -80.929688 L 0 0 L 21.679688 0 L 26.832031 -16.636719 L 50.230469 -16.636719 L 55.277344 0 Z M 31.664062 -33.378906 C 31.664062 -33.378906 37.136719 -48.40625 38.425781 -59.355469 L 38.960938 -59.355469 C 40.464844 -48.40625 45.507812 -33.378906 45.507812 -33.378906 Z M 31.664062 -33.378906 "/></g></g></g><g fill="#9b5050" fill-opacity="1"><g transform="translate(260.833023, 238.816463)"><g><path d="M 41.539062 2.253906 C 65.902344 2.253906 78.460938 -19.105469 78.460938 -40.679688 C 78.460938 -61.503906 65.902344 -83.183594 41.539062 -83.183594 C 17.171875 -83.183594 4.402344 -61.71875 4.402344 -40.679688 C 4.402344 -19.105469 17.171875 2.253906 41.539062 2.253906 Z M 41.539062 -16.421875 C 32.199219 -16.421875 25.332031 -25.117188 25.332031 -40.679688 C 25.332031 -56.242188 33.167969 -64.398438 41.539062 -64.398438 C 50.875 -64.398438 57.421875 -56.242188 57.421875 -40.679688 C 57.421875 -25.117188 50.230469 -16.421875 41.539062 -16.421875 Z M 41.539062 -16.421875 "/></g></g></g><g fill="#9b5050" fill-opacity="1"><g transform="translate(353.448185, 238.816463)"><g><path d="M 72.773438 0 C 69.230469 -3.21875 65.472656 -7.941406 64.722656 -9.765625 L 57.746094 -26.296875 C 56.566406 -29.195312 53.988281 -31.449219 49.910156 -32.953125 C 60.429688 -35.957031 66.441406 -45.292969 66.441406 -56.027344 C 66.441406 -70.734375 55.921875 -80.929688 38.640625 -80.929688 L 8.050781 -80.929688 L 8.050781 0 L 27.046875 0 L 27.046875 -30.054688 C 32.414062 -30.054688 35.847656 -28.015625 37.675781 -23.398438 L 44.007812 -6.871094 C 45.1875 -3.972656 47.335938 -1.71875 49.160156 0 Z M 27.046875 -45.722656 L 27.046875 -63.542969 L 38.101562 -63.542969 C 42.398438 -63.542969 47.121094 -60.214844 47.121094 -55.0625 C 47.121094 -49.695312 43.253906 -45.722656 38.101562 -45.722656 Z M 27.046875 -45.722656 "/></g></g></g><path stroke-linecap="butt" transform="matrix(0.748817, 0, 0, 0.75, 195.959994, 263.075402)" fill="none" stroke-linejoin="miter" d="M 0.00125974 1.998422 L 277.438794 1.998422 " stroke="#9b5050" stroke-width="4" stroke-opacity="1" stroke-miterlimit="4"/></svg>