<svg xmlns="http://www.w3.org/2000/svg" xmlns:xlink="http://www.w3.org/1999/xlink" width="800" zoomAndPan="magnify" viewBox="0 0 600 398.999991" height="532" preserveAspectRatio="xMidYMid meet" version="1.0"><defs><g/></defs><rect x="-60" width="720" fill="#ffffff" y="-39.899999" height="478.799989" fill-opacity="1"/><rect x="-60" width="720" fill="#ffffff" y="-39.899999" height="478.799989" fill-opacity="1"/><g fill="#9b5050" fill-opacity="1"><g transform="translate(146.813372, 238.816434)"><g><path d="M 24.257812 -24.148438 C 24.257812 -18.675781 20.609375 -16.742188 15.242188 -16.742188 C 11.269531 -16.742188 6.117188 -17.386719 0.75 -19.535156 L 0.75 -0.75 C 5.796875 1.074219 12.878906 2.253906 19.75 2.253906 C 35.957031 2.253906 43.46875 -4.402344 43.46875 -18.246094 L 43.46875 -80.929688 L 24.257812 -80.929688 Z M 24.257812 -24.148438 "/></g></g></g><g fill="#9b5050" fill-opacity="1"><g transform="translate(208.092559, 238.816434)"><g><path d="M 27.261719 0 L 27.261719 -27.261719 L 38.855469 -27.261719 C 56.671875 -27.261719 67.511719 -37.78125 67.511719 -54.738281 C 67.511719 -69.335938 56.996094 -80.929688 39.285156 -80.929688 L 8.050781 -80.929688 L 8.050781 0 Z M 27.261719 -44.652344 L 27.261719 -63.542969 L 36.921875 -63.542969 C 42.398438 -63.542969 47.011719 -60.429688 47.011719 -54.097656 C 47.011719 -48.300781 41.96875 -44.652344 36.921875 -44.652344 Z M 27.261719 -44.652344 "/></g></g></g><g fill="#9b5050" fill-opacity="1"><g transform="translate(289.225005, 238.816434)"><g><path d="M 41.539062 2.253906 C 65.902344 2.253906 78.460938 -19.105469 78.460938 -40.679688 C 78.460938 -61.503906 65.902344 -83.183594 41.539062 -83.183594 C 17.171875 -83.183594 4.402344 -61.71875 4.402344 -40.679688 C 4.402344 -19.105469 17.171875 2.253906 41.539062 2.253906 Z M 41.539062 -16.421875 C 32.199219 -16.421875 25.332031 -25.117188 25.332031 -40.679688 C 25.332031 -56.242188 33.167969 -64.398438 41.539062 -64.398438 C 50.875 -64.398438 57.421875 -56.242188 57.421875 -40.679688 C 57.421875 -25.117188 50.230469 -16.421875 41.539062 -16.421875 Z M 41.539062 -16.421875 "/></g></g></g><g fill="#9b5050" fill-opacity="1"><g transform="translate(381.840178, 238.816434)"><g><path d="M 27.261719 0 L 27.261719 -27.261719 L 38.855469 -27.261719 C 56.671875 -27.261719 67.511719 -37.78125 67.511719 -54.738281 C 67.511719 -69.335938 56.996094 -80.929688 39.285156 -80.929688 L 8.050781 -80.929688 L 8.050781 0 Z M 27.261719 -44.652344 L 27.261719 -63.542969 L 36.921875 -63.542969 C 42.398438 -63.542969 47.011719 -60.429688 47.011719 -54.097656 C 47.011719 -48.300781 41.96875 -44.652344 36.921875 -44.652344 Z M 27.261719 -44.652344 "/></g></g></g><path stroke-linecap="butt" transform="matrix(0.748817, 0, 0, 0.75, 195.959994, 263.075374)" fill="none" stroke-linejoin="miter" d="M 0.00125974 1.99846 L 277.438794 1.99846 " stroke="#9b5050" stroke-width="4" stroke-opacity="1" stroke-miterlimit="4"/></svg>