<svg xmlns="http://www.w3.org/2000/svg" xmlns:xlink="http://www.w3.org/1999/xlink" width="800" zoomAndPan="magnify" viewBox="0 0 600 398.999991" height="532" preserveAspectRatio="xMidYMid meet" version="1.0"><defs><g/></defs><rect x="-60" width="720" fill="#ffffff" y="-39.899999" height="478.799989" fill-opacity="1"/><rect x="-60" width="720" fill="#ffffff" y="-39.899999" height="478.799989" fill-opacity="1"/><g fill="#9b5050" fill-opacity="1"><g transform="translate(55.809452, 238.816434)"><g><path d="M 72.773438 0 C 69.230469 -3.21875 65.472656 -7.941406 64.722656 -9.765625 L 57.746094 -26.296875 C 56.566406 -29.195312 53.988281 -31.449219 49.910156 -32.953125 C 60.429688 -35.957031 66.441406 -45.292969 66.441406 -56.027344 C 66.441406 -70.734375 55.921875 -80.929688 38.640625 -80.929688 L 8.050781 -80.929688 L 8.050781 0 L 27.046875 0 L 27.046875 -30.054688 C 32.414062 -30.054688 35.847656 -28.015625 37.675781 -23.398438 L 44.007812 -6.871094 C 45.1875 -3.972656 47.335938 -1.71875 49.160156 0 Z M 27.046875 -45.722656 L 27.046875 -63.542969 L 38.101562 -63.542969 C 42.398438 -63.542969 47.121094 -60.214844 47.121094 -55.0625 C 47.121094 -49.695312 43.253906 -45.722656 38.101562 -45.722656 Z M 27.046875 -45.722656 "/></g></g></g><g fill="#9b5050" fill-opacity="1"><g transform="translate(138.122378, 238.816434)"><g><path d="M 62.898438 0 L 62.898438 -17.386719 L 27.261719 -17.386719 L 27.261719 -33.59375 L 54.527344 -33.59375 L 54.527344 -50.875 L 27.261719 -50.875 L 27.261719 -63.542969 L 60.859375 -63.542969 L 60.859375 -80.929688 L 8.050781 -80.929688 L 8.050781 0 Z M 62.898438 0 "/></g></g></g><g fill="#9b5050" fill-opacity="1"><g transform="translate(214.962226, 238.816434)"><g><path d="M 72.988281 0 L 72.988281 -46.261719 L 39.5 -46.261719 L 39.5 -29.410156 L 55.382812 -29.410156 C 54.097656 -20.5 48.515625 -16.101562 41.214844 -16.101562 C 31.664062 -16.101562 24.472656 -25.4375 24.472656 -40.785156 C 24.472656 -53.128906 30.160156 -64.828125 40.785156 -64.828125 C 47.441406 -64.828125 50.984375 -62.253906 52.484375 -57.53125 L 72.449219 -57.53125 C 69.660156 -73.09375 57.207031 -83.183594 40.785156 -83.183594 C 16.742188 -83.183594 4.402344 -63.21875 4.402344 -40.894531 C 4.402344 -14.917969 16.636719 2.253906 39.175781 2.253906 C 46.90625 2.253906 54.953125 -0.75 58.605469 -7.941406 L 61.609375 0 Z M 72.988281 0 "/></g></g></g><g fill="#9b5050" fill-opacity="1"><g transform="translate(302.640921, 238.816434)"><g><path d="M 72.988281 0 L 72.988281 -46.261719 L 39.5 -46.261719 L 39.5 -29.410156 L 55.382812 -29.410156 C 54.097656 -20.5 48.515625 -16.101562 41.214844 -16.101562 C 31.664062 -16.101562 24.472656 -25.4375 24.472656 -40.785156 C 24.472656 -53.128906 30.160156 -64.828125 40.785156 -64.828125 C 47.441406 -64.828125 50.984375 -62.253906 52.484375 -57.53125 L 72.449219 -57.53125 C 69.660156 -73.09375 57.207031 -83.183594 40.785156 -83.183594 C 16.742188 -83.183594 4.402344 -63.21875 4.402344 -40.894531 C 4.402344 -14.917969 16.636719 2.253906 39.175781 2.253906 C 46.90625 2.253906 54.953125 -0.75 58.605469 -7.941406 L 61.609375 0 Z M 72.988281 0 "/></g></g></g><g fill="#9b5050" fill-opacity="1"><g transform="translate(390.319604, 238.816434)"><g><path d="M 77.496094 0 L 48.300781 -80.929688 L 28.015625 -80.929688 L 0 0 L 21.679688 0 L 26.832031 -16.636719 L 50.230469 -16.636719 L 55.277344 0 Z M 31.664062 -33.378906 C 31.664062 -33.378906 37.136719 -48.40625 38.425781 -59.355469 L 38.960938 -59.355469 C 40.464844 -48.40625 45.507812 -33.378906 45.507812 -33.378906 Z M 31.664062 -33.378906 "/></g></g></g><g fill="#9b5050" fill-opacity="1"><g transform="translate(477.139739, 238.816434)"><g><path d="M 62.898438 0 L 62.898438 -17.386719 L 27.261719 -17.386719 L 27.261719 -33.59375 L 54.527344 -33.59375 L 54.527344 -50.875 L 27.261719 -50.875 L 27.261719 -63.542969 L 60.859375 -63.542969 L 60.859375 -80.929688 L 8.050781 -80.929688 L 8.050781 0 Z M 62.898438 0 "/></g></g></g><path stroke-linecap="butt" transform="matrix(0.748817, 0, 0, 0.75, 195.959994, 263.075609)" fill="none" stroke-linejoin="miter" d="M 0.00125974 1.998147 L 277.438794 1.998147 " stroke="#9b5050" stroke-width="4" stroke-opacity="1" stroke-miterlimit="4"/></svg>