<svg xmlns="http://www.w3.org/2000/svg" xmlns:xlink="http://www.w3.org/1999/xlink" width="800" zoomAndPan="magnify" viewBox="0 0 600 398.999991" height="532" preserveAspectRatio="xMidYMid meet" version="1.0"><defs><g/></defs><rect x="-60" width="720" fill="#ffffff" y="-39.899999" height="478.799989" fill-opacity="1"/><rect x="-60" width="720" fill="#ffffff" y="-39.899999" height="478.799989" fill-opacity="1"/><g fill="#9b5050" fill-opacity="1"><g transform="translate(23.864873, 238.816463)"><g><path d="M 62.898438 0 L 62.898438 -17.386719 L 27.261719 -17.386719 L 27.261719 -33.59375 L 54.527344 -33.59375 L 54.527344 -50.875 L 27.261719 -50.875 L 27.261719 -63.542969 L 60.859375 -63.542969 L 60.859375 -80.929688 L 8.050781 -80.929688 L 8.050781 0 Z M 62.898438 0 "/></g></g></g><g fill="#9b5050" fill-opacity="1"><g transform="translate(100.704722, 238.816463)"><g><path d="M 58.28125 0 L 58.28125 -19 L 27.261719 -19 L 27.261719 -80.929688 L 8.050781 -80.929688 L 8.050781 0 Z M 58.28125 0 "/></g></g></g><g fill="#9b5050" fill-opacity="1"><g transform="translate(171.427613, 238.816463)"><g><path d="M 62.898438 0 L 62.898438 -17.386719 L 27.261719 -17.386719 L 27.261719 -33.59375 L 54.527344 -33.59375 L 54.527344 -50.875 L 27.261719 -50.875 L 27.261719 -63.542969 L 60.859375 -63.542969 L 60.859375 -80.929688 L 8.050781 -80.929688 L 8.050781 0 Z M 62.898438 0 "/></g></g></g><g fill="#9b5050" fill-opacity="1"><g transform="translate(248.267457, 238.816463)"><g><path d="M 54.3125 -27.261719 C 52.59375 -20.070312 47.011719 -17.066406 40.570312 -17.066406 C 31.234375 -17.066406 24.902344 -25.867188 24.902344 -40.785156 C 24.902344 -53.667969 31.234375 -63.972656 40.464844 -63.972656 C 47.65625 -63.972656 52.484375 -60.429688 54.417969 -53.988281 L 73.84375 -53.988281 C 71.699219 -71.914062 58.710938 -83.183594 40.570312 -83.183594 C 17.171875 -83.183594 4.402344 -63.21875 4.402344 -40.894531 C 4.402344 -15.347656 18.03125 2.253906 40.25 2.253906 C 58.175781 2.253906 71.054688 -5.582031 73.738281 -27.261719 Z M 54.3125 -27.261719 "/></g></g></g><g fill="#9b5050" fill-opacity="1"><g transform="translate(335.838816, 238.816463)"><g><path d="M 42.398438 0 L 42.398438 -63.113281 L 62.683594 -63.113281 L 62.683594 -80.929688 L 2.683594 -80.929688 L 2.683594 -63.113281 L 22.753906 -63.113281 L 22.753906 0 Z M 42.398438 0 "/></g></g></g><g fill="#9b5050" fill-opacity="1"><g transform="translate(410.961613, 238.816463)"><g><path d="M 72.773438 0 C 69.230469 -3.21875 65.472656 -7.941406 64.722656 -9.765625 L 57.746094 -26.296875 C 56.566406 -29.195312 53.988281 -31.449219 49.910156 -32.953125 C 60.429688 -35.957031 66.441406 -45.292969 66.441406 -56.027344 C 66.441406 -70.734375 55.921875 -80.929688 38.640625 -80.929688 L 8.050781 -80.929688 L 8.050781 0 L 27.046875 0 L 27.046875 -30.054688 C 32.414062 -30.054688 35.847656 -28.015625 37.675781 -23.398438 L 44.007812 -6.871094 C 45.1875 -3.972656 47.335938 -1.71875 49.160156 0 Z M 27.046875 -45.722656 L 27.046875 -63.542969 L 38.101562 -63.542969 C 42.398438 -63.542969 47.121094 -60.214844 47.121094 -55.0625 C 47.121094 -49.695312 43.253906 -45.722656 38.101562 -45.722656 Z M 27.046875 -45.722656 "/></g></g></g><g fill="#9b5050" fill-opacity="1"><g transform="translate(493.274543, 238.816463)"><g><path d="M 41.539062 2.253906 C 65.902344 2.253906 78.460938 -19.105469 78.460938 -40.679688 C 78.460938 -61.503906 65.902344 -83.183594 41.539062 -83.183594 C 17.171875 -83.183594 4.402344 -61.71875 4.402344 -40.679688 C 4.402344 -19.105469 17.171875 2.253906 41.539062 2.253906 Z M 41.539062 -16.421875 C 32.199219 -16.421875 25.332031 -25.117188 25.332031 -40.679688 C 25.332031 -56.242188 33.167969 -64.398438 41.539062 -64.398438 C 50.875 -64.398438 57.421875 -56.242188 57.421875 -40.679688 C 57.421875 -25.117188 50.230469 -16.421875 41.539062 -16.421875 Z M 41.539062 -16.421875 "/></g></g></g><path stroke-linecap="butt" transform="matrix(0.748817, 0, 0, 0.75, 195.959994, 263.075402)" fill="none" stroke-linejoin="miter" d="M 0.00125974 1.998422 L 277.438794 1.998422 " stroke="#9b5050" stroke-width="4" stroke-opacity="1" stroke-miterlimit="4"/></svg>