<svg xmlns="http://www.w3.org/2000/svg" xmlns:xlink="http://www.w3.org/1999/xlink" width="800" zoomAndPan="magnify" viewBox="0 0 600 398.999991" height="532" preserveAspectRatio="xMidYMid meet" version="1.0"><defs><g/></defs><rect x="-60" width="720" fill="#ffffff" y="-39.899999" height="478.799989" fill-opacity="1"/><rect x="-60" width="720" fill="#ffffff" y="-39.899999" height="478.799989" fill-opacity="1"/><rect x="-60" width="720" fill="#ffffff" y="-39.899999" height="478.799989" fill-opacity="1"/><g fill="#9b5050" fill-opacity="1"><g transform="translate(129.252334, 238.816391)"><g><path d="M 41.214844 8.050781 C 40.894531 6.441406 40.679688 -6.546875 40.570312 -22.109375 C 42.933594 -18.03125 45.292969 -14.167969 47.550781 -10.839844 C 47.550781 -10.839844 51.089844 -21.679688 56.136719 -29.515625 C 52.378906 -32.84375 47.976562 -37.890625 43.578125 -44.328125 C 49.265625 -44.222656 53.667969 -44.113281 54.738281 -43.898438 L 54.738281 -61.609375 C 53.558594 -61.289062 47.65625 -61.074219 40.464844 -60.964844 L 40.464844 -68.265625 C 43.792969 -68.910156 46.796875 -69.550781 49.265625 -70.304688 C 49.910156 -70.410156 50.445312 -70.625 51.304688 -70.625 C 51.628906 -70.625 52.058594 -70.625 52.59375 -70.519531 L 53.023438 -70.519531 C 53.988281 -70.519531 54.847656 -71.164062 54.847656 -72.128906 C 54.847656 -73.738281 44.328125 -85.972656 42.933594 -85.972656 C 42.289062 -85.972656 41.753906 -85.4375 40.894531 -84.792969 C 39.285156 -83.613281 23.398438 -81.359375 6.65625 -81.035156 C 10.089844 -73.308594 10.734375 -64.507812 10.734375 -64.507812 C 14.488281 -64.828125 18.460938 -65.152344 22.324219 -65.582031 L 22.324219 -60.964844 C 10.625 -61.289062 8.800781 -61.394531 7.296875 -61.609375 L 7.296875 -43.898438 C 8.371094 -44.113281 13.203125 -44.222656 19.320312 -44.328125 C 15.242188 -36.492188 10.410156 -29.945312 5.257812 -24.148438 C 9.875 -15.777344 12.558594 -3.972656 12.558594 -3.972656 C 15.886719 -8.585938 19.210938 -13.523438 22.21875 -18.570312 C 22.109375 -4.722656 21.894531 6.65625 21.464844 8.050781 Z M 98.425781 4.402344 C 98.101562 -7.511719 98.101562 -41.429688 98.101562 -62.683594 L 98.101562 -80.824219 L 56.566406 -80.824219 L 56.566406 -51.089844 C 56.566406 -30.484375 56.566406 -5.042969 56.242188 5.367188 L 74.703125 5.367188 C 74.703125 3.328125 74.597656 0.75 74.597656 -2.039062 L 80.070312 -2.039062 C 80.070312 -0.105469 79.964844 2.789062 79.964844 4.402344 Z M 74.382812 -18.460938 L 74.382812 -64.398438 L 80.285156 -64.398438 L 80.285156 -46.90625 C 80.285156 -38.425781 80.285156 -28.015625 80.179688 -18.460938 Z M 74.382812 -18.460938 "/></g></g></g><g fill="#9b5050" fill-opacity="1"><g transform="translate(246.335325, 238.816391)"><g><path d="M 63.648438 -15.886719 C 57.53125 -16.101562 56.996094 -16.53125 56.996094 -21.894531 L 56.996094 -32.414062 C 67.726562 -32.628906 78.246094 -32.84375 85.867188 -32.84375 C 90.589844 -32.84375 94.238281 -32.84375 96.277344 -32.628906 L 95.847656 -50.984375 C 90.695312 -50.445312 74.382812 -49.804688 57.421875 -49.480469 C 57.421875 -52.058594 57.53125 -54.953125 57.636719 -57.960938 C 61.609375 -58.066406 65.367188 -58.066406 68.910156 -58.066406 C 75.242188 -58.066406 80.609375 -57.960938 83.71875 -57.746094 L 83.503906 -76.527344 C 73.738281 -75.886719 42.933594 -75.132812 25.976562 -75.132812 C 22.539062 -75.132812 19.640625 -75.132812 17.601562 -75.242188 L 17.816406 -56.566406 C 21.789062 -56.886719 29.195312 -57.316406 37.78125 -57.53125 L 37.78125 -49.160156 C 33.273438 -49.160156 28.980469 -49.050781 25.117188 -49.050781 C 18.570312 -49.050781 13.523438 -49.160156 10.839844 -49.375 L 11.269531 -30.914062 C 15.457031 -31.234375 25.976562 -31.664062 37.78125 -31.984375 C 37.675781 -24.042969 37.566406 -17.28125 37.351562 -11.808594 L 37.351562 -11.484375 C 37.351562 -3.21875 45.617188 1.824219 55.0625 2.148438 C 59.785156 2.363281 64.613281 2.363281 69.550781 2.363281 C 76.3125 2.363281 83.292969 2.253906 90.160156 1.933594 C 90.375 -2.46875 91.554688 -10.519531 92.628906 -18.570312 C 83.503906 -16.53125 73.09375 -15.886719 66.332031 -15.886719 Z M 63.648438 -15.886719 "/></g></g></g><g fill="#9b5050" fill-opacity="1"><g transform="translate(363.418316, 238.816391)"><g><path d="M 67.082031 -79.425781 C 67.082031 -64.292969 48.300781 -22.21875 8.15625 -6.441406 C 15.5625 -3.21875 25.007812 3.21875 29.839844 8.050781 C 59.355469 -11.378906 75.347656 -35.3125 88.226562 -66.332031 C 89.085938 -68.480469 90.054688 -69.550781 91.449219 -70.839844 C 92.09375 -71.378906 92.414062 -71.914062 92.414062 -72.34375 C 92.414062 -72.988281 91.984375 -73.738281 68.265625 -80.929688 C 68.050781 -81.035156 67.835938 -81.035156 67.621094 -81.035156 C 67.082031 -81.035156 67.082031 -80.609375 67.082031 -79.855469 Z M 67.082031 -79.425781 "/></g></g></g><path stroke-linecap="butt" transform="matrix(0.748817, 0, 0, 0.75, 195.959994, 263.075402)" fill="none" stroke-linejoin="miter" d="M 0.00125974 1.998422 L 277.438794 1.998422 " stroke="#9b5050" stroke-width="4" stroke-opacity="1" stroke-miterlimit="4"/></svg>